<svg width="94" height="30" viewBox="0 0 94 30" fill="none" xmlns="http://www.w3.org/2000/svg">
<path fill-rule="evenodd" clip-rule="evenodd" d="M5.92111 3.41995C4.75527 3.41995 3.67473 3.8037 2.80745 4.44329V1.0606C2.80745 0.477874 2.32405 -0.00537109 1.74113 -0.00537109C1.1582 -0.00537109 0.674805 0.477874 0.674805 1.0606V8.66454C0.674805 11.564 3.02072 13.9091 5.92111 13.9091C8.82151 13.9091 11.1674 11.564 11.1674 8.66454C11.1674 5.76509 8.82151 3.41995 5.92111 3.41995ZM5.92111 11.8056C4.18656 11.8056 2.77902 10.3985 2.77902 8.66454C2.77902 6.93056 4.18656 5.52348 5.92111 5.52348C7.65567 5.52348 9.06321 6.93056 9.06321 8.66454C9.06321 10.3985 7.65567 11.8056 5.92111 11.8056Z" fill="#A1A6BA"/>
<path fill-rule="evenodd" clip-rule="evenodd" d="M86.6774 2.26871C83.0945 2.26871 80.1799 5.18237 80.1799 8.76404C80.1799 12.3457 83.0945 15.2594 86.6774 15.2594C90.2602 15.2594 93.1748 12.3457 93.1748 8.76404C93.1748 5.16816 90.2602 2.26871 86.6774 2.26871ZM90.0611 9.81579H87.7437V12.1325C87.7437 12.7152 87.2603 13.1985 86.6774 13.1985C86.0944 13.1985 85.611 12.7152 85.611 12.1325V9.81579H83.2935C82.7106 9.81579 82.2272 9.33256 82.2272 8.74982C82.2272 8.16709 82.7106 7.68385 83.2935 7.68385H85.611V5.36713C85.611 4.7844 86.0944 4.30116 86.6774 4.30116C87.2603 4.30116 87.7437 4.7844 87.7437 5.36713V7.68385H90.0611C90.6441 7.68385 91.1275 8.16709 91.1275 8.74982C91.1275 9.33256 90.6441 9.81579 90.0611 9.81579Z" fill="#A1A6BA"/>
<path d="M24.0344 6.53265C24.0344 4.54283 25.7405 3.39159 27.1907 3.39159H31.2427C31.8256 3.39159 32.2948 3.8464 32.2948 4.44335C32.2948 5.13978 31.6977 5.4951 31.2427 5.4951H27.2049C26.5224 5.4951 26.1528 6.04941 26.1528 6.53265C26.1528 7.0301 26.5082 7.59862 27.2049 7.59862H29.6645C31.5697 7.59862 32.8209 9.19048 32.8209 10.7397C32.8209 12.3458 31.6266 13.9234 29.6645 13.9234H25.641C24.9727 13.9234 24.5746 13.3691 24.5746 12.8574C24.5746 12.3031 25.0012 11.7915 25.6267 11.7915H29.6219C30.3186 11.7915 30.6598 11.1519 30.6598 10.7539C30.6598 10.3702 30.347 9.73057 29.6219 9.73057H27.1907C26.0959 9.71636 24.0344 8.84937 24.0344 6.53265Z" fill="#A1A6BA"/>
<path d="M59.6496 6.53265C59.6496 4.54283 61.3557 3.39159 62.8059 3.39159H66.8437C67.4266 3.39159 67.8958 3.8464 67.8958 4.44335C67.8958 5.13978 67.2986 5.4951 66.8437 5.4951H62.8059C62.1234 5.4951 61.7538 6.04941 61.7538 6.53265C61.7538 7.0301 62.1092 7.59862 62.8059 7.59862H65.2655C67.1707 7.59862 68.4218 9.19048 68.4218 10.7397C68.4218 12.3458 67.2276 13.9234 65.2655 13.9234H61.2419C60.5595 13.9234 60.1756 13.3691 60.1756 12.8574C60.1756 12.3031 60.6021 11.7915 61.2277 11.7915H65.2229C65.9195 11.7915 66.2608 11.1519 66.2608 10.7539C66.2608 10.3702 65.948 9.73057 65.2229 9.73057H62.8059C61.6969 9.71636 59.6496 8.84937 59.6496 6.53265Z" fill="#A1A6BA"/>
<path d="M71.9905 3.39159C70.5403 3.39159 68.8342 4.54283 68.8342 6.53265C68.8342 8.84937 70.8815 9.71636 71.9905 9.73057H74.4217C75.1468 9.73057 75.4596 10.3702 75.4596 10.7539C75.4596 11.1519 75.1184 11.7915 74.4217 11.7915H70.4265C69.801 11.7915 69.3744 12.3031 69.3744 12.8574C69.3744 13.3691 69.7583 13.9234 70.4408 13.9234H74.4643C76.4264 13.9234 77.6207 12.3458 77.6207 10.7397C77.6207 9.19048 76.3695 7.59862 74.4643 7.59862H71.9905C71.2938 7.59862 70.9384 7.0301 70.9384 6.53265C70.9384 6.04941 71.308 5.4951 71.9905 5.4951H76.0283C76.4833 5.4951 77.0804 5.13978 77.0804 4.44335C77.0804 3.8464 76.6112 3.39159 76.0283 3.39159H71.9905Z" fill="#A1A6BA"/>
<path d="M34.0578 4.45756C34.0578 3.87483 34.5412 3.39159 35.1241 3.39159C35.707 3.39159 36.1904 3.87483 36.1904 4.45756V12.8432C36.1904 13.4259 35.707 13.9092 35.1241 13.9092C34.5412 13.9092 34.0578 13.4259 34.0578 12.8432V4.45756Z" fill="#A1A6BA"/>
<path fill-rule="evenodd" clip-rule="evenodd" d="M34.2995 20.5181C35.1668 19.8785 36.2473 19.4948 37.4132 19.4948C40.3136 19.4948 42.6595 21.8399 42.6595 24.7394C42.6595 27.6388 40.3136 29.984 37.4132 29.984C34.5128 29.984 32.1669 27.6388 32.1669 24.7394V17.1354C32.1669 16.5527 32.6503 16.0695 33.2332 16.0695C33.8161 16.0695 34.2995 16.5527 34.2995 17.1354V20.5181ZM34.2711 24.7394C34.2711 26.4733 35.6786 27.8804 37.4132 27.8804C39.1477 27.8804 40.5411 26.4733 40.5553 24.7394C40.5553 23.0054 39.1477 21.5983 37.4132 21.5983C35.6786 21.5983 34.2711 23.0054 34.2711 24.7394Z" fill="#A1A6BA"/>
<path d="M21.788 3.39159C21.2051 3.39159 20.7217 3.87483 20.7217 4.45756L20.7359 8.73566C20.6933 10.427 19.3142 11.7772 17.608 11.7772C15.9019 11.7772 14.5228 10.427 14.4802 8.73566L14.4944 4.45756C14.4944 3.87483 14.011 3.39159 13.4281 3.39159C12.8451 3.39159 12.3617 3.87483 12.3617 4.45756V8.73566C12.4044 11.5925 14.7361 13.9092 17.608 13.9092C20.48 13.9092 22.8117 11.6067 22.8544 8.73566V4.45756C22.8544 3.87483 22.371 3.39159 21.788 3.39159Z" fill="#A1A6BA"/>
<path d="M17.3948 20.5324C17.3948 19.9497 17.8782 19.4664 18.4611 19.4664C19.044 19.4664 19.5274 19.9497 19.5274 20.5324V24.8105C19.4847 27.6815 17.1531 29.984 14.2811 29.984C12.575 29.984 11.0537 29.1739 10.1011 27.9089C9.14852 29.1739 7.62723 29.984 5.92111 29.984C3.04915 29.984 0.717458 27.6815 0.674805 24.8105V20.5324C0.674805 19.9497 1.1582 19.4664 1.74113 19.4664C2.32405 19.4664 2.80745 19.9497 2.80745 20.5324L2.79323 24.8105C2.83589 26.5018 4.215 27.8521 5.92111 27.8521C7.5988 27.8521 8.96369 26.5302 9.03478 24.8815V20.5324C9.03478 19.9497 9.51818 19.4664 10.1011 19.4664C10.684 19.4664 11.1674 19.9497 11.1674 20.5324V24.8815C11.2385 26.5302 12.6034 27.8521 14.2811 27.8521C15.9872 27.8521 17.3663 26.5018 17.409 24.8105L17.3948 20.5324Z" fill="#A1A6BA"/>
<path d="M38.508 13.9092C39.0909 13.9092 39.5743 13.4259 39.5743 12.8432L39.5601 8.56511C39.6027 6.87376 40.9818 5.52353 42.688 5.52353C44.3941 5.52353 45.7732 6.87376 45.8158 8.56511L45.8016 12.8432C45.8016 13.4259 46.285 13.9092 46.8679 13.9092C47.4509 13.9092 47.9343 13.4259 47.9343 12.8432V8.56511C47.8916 5.7083 45.5599 3.39159 42.688 3.39159C39.816 3.39159 37.4843 5.69409 37.4416 8.56511V12.8432C37.4416 13.4259 37.9108 13.9092 38.508 13.9092Z" fill="#A1A6BA"/>
<path d="M36.1904 1.16012C36.1904 1.74884 35.713 2.22609 35.1241 2.22609C34.5352 2.22609 34.0578 1.74884 34.0578 1.16012C34.0578 0.571398 34.5352 0.0941475 35.1241 0.0941475C35.713 0.0941475 36.1904 0.571398 36.1904 1.16012Z" fill="#A1A6BA"/>
<path fill-rule="evenodd" clip-rule="evenodd" d="M58.7538 9.73052C58.2704 9.40362 57.6022 9.53153 57.2752 10.0148C57.2746 10.0154 57.2715 10.0195 57.2661 10.0267C57.1501 10.1811 55.9513 11.7772 54.389 11.7772C53.9198 11.7772 53.4649 11.6635 53.0526 11.4787L58.0856 6.46153C58.4979 6.04935 58.4979 5.36713 58.0856 4.95496L58.0697 4.93904C57.7579 4.62654 56.5397 3.40574 54.3748 3.40574C51.4744 3.40574 49.1285 5.75088 49.1285 8.65034C49.1285 11.5498 51.4744 13.8949 54.3748 13.8949C57.2431 13.8949 58.8878 11.4207 59.0339 11.201L59.0382 11.1945C59.3794 10.7254 59.2515 10.0574 58.7538 9.73052ZM51.2611 8.66454C51.2611 6.94478 52.6545 5.53769 54.389 5.53769C54.8582 5.53769 55.3132 5.63718 55.7113 5.83616L51.5597 9.97214C51.3749 9.57418 51.2611 9.13357 51.2611 8.66454Z" fill="#A1A6BA"/>
<path fill-rule="evenodd" clip-rule="evenodd" d="M28.9963 26.0896C29.3233 25.6064 29.9916 25.4784 30.475 25.8053C30.9726 26.1322 31.1005 26.8002 30.7593 27.2693L30.755 27.2758C30.6088 27.4957 28.9642 29.9697 26.0959 29.9697C23.1955 29.9697 20.8496 27.6246 20.8496 24.7252C20.8496 21.8257 23.1955 19.4806 26.0959 19.4806C28.2609 19.4806 29.479 20.7014 29.7908 21.0139L29.8067 21.0298C30.219 21.442 30.219 22.1242 29.8067 22.5364L24.7737 27.5535C25.186 27.7383 25.641 27.852 26.1102 27.852C27.6725 27.852 28.8713 26.2558 28.9873 26.1015L28.9935 26.0932C28.9951 26.0911 28.996 26.0899 28.9963 26.0896ZM26.1102 21.6125C24.3756 21.6125 22.9823 23.0196 22.9823 24.7394C22.9823 25.2084 23.096 25.649 23.2808 26.047L27.4324 21.911C27.0343 21.712 26.5793 21.6125 26.1102 21.6125Z" fill="#A1A6BA"/>
<path d="M50.6356 22.9344C50.4934 23.1334 50.2944 23.304 50.0527 23.4319C49.811 23.5598 49.5266 23.6167 49.1996 23.6167C48.9152 23.6167 48.6451 23.574 48.4034 23.4745C48.1617 23.375 47.9485 23.2471 47.7778 23.0623C47.6072 22.8918 47.4651 22.6786 47.3655 22.437C47.266 22.1954 47.2234 21.9253 47.2234 21.6411C47.2234 21.3426 47.2802 21.0725 47.3797 20.8309C47.4793 20.5893 47.6214 20.3761 47.8063 20.2055C47.9911 20.035 48.2044 19.8928 48.4461 19.8076C48.6878 19.7081 48.9579 19.6654 49.2423 19.6654C49.3702 19.6654 49.4982 19.6797 49.6261 19.7081C49.7541 19.7365 49.882 19.7649 50.01 19.8218C50.1237 19.8644 50.2375 19.9355 50.337 20.0066C50.4365 20.0776 50.5218 20.1629 50.5929 20.2624L50.1806 20.5751C50.0953 20.4472 49.9531 20.3477 49.7825 20.2624C49.6119 20.1771 49.4271 20.1345 49.2423 20.1345C49.029 20.1345 48.8299 20.1771 48.6451 20.2482C48.4745 20.3334 48.3181 20.4329 48.1902 20.5751C48.0622 20.7172 47.9769 20.8735 47.9058 21.0583C47.8347 21.2431 47.8063 21.4421 47.8063 21.6411C47.8063 21.8542 47.8347 22.0532 47.9058 22.238C47.9769 22.4228 48.0622 22.5791 48.1902 22.7212C48.3181 22.8634 48.4603 22.9628 48.6309 23.0481C48.8015 23.1334 49.0006 23.1618 49.2138 23.1618C49.4271 23.1618 49.6261 23.1192 49.7967 23.0339C49.9674 22.9486 50.1095 22.8207 50.2233 22.6644L50.6356 22.9344Z" fill="#A1A6BA"/>
<path fill-rule="evenodd" clip-rule="evenodd" d="M53.536 22.7922C53.6071 22.6217 53.6355 22.4511 53.6355 22.2521C53.6355 22.0531 53.5929 21.8684 53.536 21.712C53.4649 21.5557 53.3796 21.4136 53.2516 21.2998C53.1237 21.1862 52.9815 21.1009 52.8109 21.0298C52.6403 20.9587 52.4554 20.9303 52.2706 20.9303C52.0716 20.9303 51.901 20.9587 51.7303 21.0298C51.574 21.0867 51.4176 21.1862 51.3038 21.2998C51.1901 21.4136 51.0905 21.5557 51.0195 21.712C50.9484 21.8826 50.9199 22.0531 50.9199 22.2521C50.9199 22.4511 50.9484 22.6359 51.0195 22.7922C51.0905 22.9628 51.1901 23.1049 51.3038 23.2186C51.4176 23.3323 51.5597 23.4176 51.7303 23.4887C51.901 23.5597 52.0858 23.5881 52.2706 23.5881C52.4697 23.5881 52.6403 23.5597 52.8109 23.4887C52.9815 23.4318 53.1237 23.3323 53.2516 23.2186C53.3654 23.0907 53.4649 22.9486 53.536 22.7922ZM53.0526 21.911C53.0952 22.0105 53.1095 22.1384 53.1095 22.2521C53.1095 22.3658 53.0952 22.4795 53.0526 22.5932C53.0241 22.7069 52.9673 22.8064 52.8962 22.8917C52.8251 22.977 52.7256 23.0481 52.6261 23.0907C52.5265 23.1333 52.4128 23.1617 52.2706 23.1617C52.1427 23.1617 52.0147 23.1333 51.9152 23.0907C51.8014 23.0481 51.7161 22.977 51.645 22.8917C51.574 22.8064 51.5313 22.7069 51.4886 22.5932C51.446 22.4937 51.4318 22.3658 51.4318 22.2521C51.4318 22.1384 51.446 22.0247 51.4886 21.911C51.5171 21.8115 51.574 21.712 51.645 21.6268C51.7161 21.5415 51.8156 21.4704 51.9152 21.4278C52.0147 21.3851 52.1284 21.3567 52.2706 21.3567C52.3986 21.3567 52.5265 21.3851 52.6261 21.4278C52.7398 21.4704 52.8251 21.5415 52.8962 21.6268C52.9673 21.712 53.0099 21.7973 53.0526 21.911Z" fill="#A1A6BA"/>
<path d="M55.1141 21.0583C55.2563 20.9588 55.4269 20.9162 55.6117 20.9162C55.7824 20.9162 55.9388 20.9588 56.0667 21.0299C56.1947 21.1009 56.3084 21.2431 56.3937 21.4136C56.479 21.2573 56.5928 21.1294 56.7492 21.0441C56.9056 20.9588 57.0619 20.9162 57.2468 20.9162C57.4032 20.9162 57.5453 20.9446 57.6733 21.0014C57.787 21.0583 57.8866 21.1294 57.9719 21.2288C58.043 21.3283 58.1141 21.4278 58.1425 21.5557C58.1851 21.6837 58.1994 21.8116 58.1994 21.9537V23.5171H57.7017V22.1243C57.7017 22.0248 57.6875 21.9253 57.6733 21.8258C57.6591 21.7405 57.6306 21.6552 57.588 21.5842C57.5453 21.5131 57.4885 21.4563 57.4174 21.4136C57.3463 21.371 57.261 21.3568 57.1473 21.3568C57.0335 21.3568 56.934 21.3852 56.8487 21.4278C56.7634 21.4705 56.7065 21.5415 56.6496 21.6126C56.5928 21.6837 56.5643 21.7689 56.5359 21.8684C56.5075 21.9679 56.5075 22.0674 56.5075 22.1669V23.5313H56.0098V22.0248C56.0098 21.9253 55.9956 21.84 55.9814 21.7547C55.9672 21.6695 55.9388 21.5984 55.8961 21.5415C55.8534 21.4847 55.7966 21.442 55.7255 21.3994C55.6544 21.371 55.5691 21.3425 55.4696 21.3425C55.2847 21.3425 55.1283 21.4136 55.0146 21.57C54.8867 21.7263 54.8298 21.9253 54.8298 22.1669V23.5029H54.3322V21.2715C54.3322 21.2198 54.3283 21.1682 54.3246 21.1185C54.3239 21.1092 54.3233 21.1 54.3226 21.0908C54.3212 21.0711 54.3199 21.0517 54.3191 21.0328C54.3184 21.0172 54.3179 21.002 54.3179 20.9872H54.7871C54.7871 20.9944 54.7873 21.002 54.7877 21.01C54.7882 21.0183 54.7888 21.0271 54.7895 21.0361C54.7906 21.0509 54.7921 21.0664 54.7936 21.0823C54.7974 21.1214 54.8013 21.1629 54.8013 21.2004V21.3994H54.8156C54.8724 21.2715 54.9862 21.1578 55.1141 21.0583Z" fill="#A1A6BA"/>
<path fill-rule="evenodd" clip-rule="evenodd" d="M59.0525 24.7963H59.5359V23.1618H59.5501C59.6496 23.304 59.7776 23.4177 59.9339 23.4887C60.0903 23.5598 60.261 23.6024 60.4458 23.6024C60.6448 23.6024 60.8154 23.574 60.9718 23.5029C61.1282 23.4319 61.2562 23.3324 61.3699 23.2187C61.4837 23.0908 61.569 22.9486 61.6258 22.7923C61.6827 22.6217 61.7111 22.4512 61.7111 22.2664C61.7111 22.0959 61.6827 21.9111 61.6258 21.7547C61.569 21.5842 61.4837 21.4421 61.3699 21.3284C61.2562 21.2005 61.1282 21.1152 60.9718 21.0441C60.8154 20.973 60.6448 20.9446 60.46 20.9446C60.2467 20.9446 60.0619 20.9873 59.9055 21.0725C59.7491 21.1578 59.6354 21.2715 59.5501 21.3994H59.5359V21.0015H59.0525V24.7963ZM61.1424 21.9111C61.1851 22.0248 61.1993 22.1385 61.1993 22.2522C61.1993 22.3659 61.1851 22.4796 61.1424 22.5791C61.114 22.6928 61.0571 22.7923 60.9861 22.8776C60.915 22.9628 60.8154 23.0197 60.7159 23.0766C60.6022 23.1192 60.4884 23.1476 60.3463 23.1476C60.2183 23.1476 60.0903 23.1192 59.9908 23.0766C59.8913 23.0339 59.7918 22.9628 59.7207 22.8776C59.6496 22.8065 59.5927 22.707 59.5501 22.5933C59.5074 22.4938 59.4932 22.3659 59.4932 22.2522C59.4932 22.1385 59.5074 22.0248 59.5501 21.9111C59.5927 21.7974 59.6496 21.6979 59.7207 21.6126C59.7918 21.5273 59.8913 21.4563 59.9908 21.4136C60.1046 21.371 60.2183 21.3426 60.3463 21.3426C60.4884 21.3426 60.6164 21.371 60.7159 21.4136C60.8297 21.4563 60.915 21.5273 60.9861 21.6126C61.0571 21.6979 61.0998 21.7974 61.1424 21.9111Z" fill="#A1A6BA"/>
<path d="M62.4052 21.1892C62.4038 21.1653 62.402 21.1417 62.4003 21.1185C62.3969 21.0725 62.3936 21.0282 62.3936 20.9872H62.8628C62.8628 21.0128 62.8657 21.0441 62.8688 21.0785C62.8708 21.1002 62.8729 21.1232 62.8745 21.1468L62.875 21.1546L62.8755 21.1633C62.8764 21.1802 62.877 21.1974 62.877 21.2146V21.4136H62.8912C62.9623 21.2715 63.0618 21.1436 63.204 21.0583C63.3462 20.973 63.4884 20.9162 63.659 20.9162C63.7301 20.9162 63.8011 20.9304 63.858 20.9446L63.8296 21.4136C63.7585 21.3994 63.6874 21.3852 63.6021 21.3852C63.4884 21.3852 63.3746 21.4136 63.2893 21.4563C63.204 21.4989 63.1329 21.5557 63.0618 21.641C63.005 21.7121 62.9623 21.7974 62.9339 21.8969C62.9054 21.9963 62.8912 22.0958 62.8912 22.2095V23.5313H62.3936V21.5557C62.422 21.4705 62.422 21.3852 62.4078 21.2715C62.4078 21.2566 62.4075 21.2416 62.4069 21.2268C62.4065 21.2142 62.4059 21.2017 62.4052 21.1892Z" fill="#A1A6BA"/>
<path fill-rule="evenodd" clip-rule="evenodd" d="M66.7015 22.7922C66.7726 22.6217 66.8011 22.4511 66.8011 22.2521C66.8011 22.0531 66.7726 21.8684 66.7015 21.712C66.6305 21.5557 66.5452 21.4136 66.4172 21.2998C66.3035 21.1862 66.1613 21.1009 65.9907 21.0298C65.8201 20.9587 65.6352 20.9303 65.4504 20.9303C65.2513 20.9303 65.0807 20.9587 64.9101 21.0298C64.7537 21.0867 64.5973 21.1862 64.4836 21.2998C64.3699 21.4136 64.2703 21.5557 64.1992 21.712C64.1281 21.8826 64.0997 22.0531 64.0997 22.2521C64.0997 22.4511 64.1281 22.6359 64.1992 22.7922C64.2703 22.9628 64.3699 23.1049 64.4836 23.2186C64.5973 23.3323 64.7395 23.4176 64.9101 23.4887C65.0807 23.5597 65.2656 23.5881 65.4504 23.5881C65.6494 23.5881 65.8201 23.5597 65.9907 23.4887C66.1471 23.4318 66.2892 23.3323 66.4172 23.2186C66.5309 23.0907 66.6305 22.9486 66.7015 22.7922ZM66.2182 21.911C66.2608 22.0105 66.275 22.1384 66.275 22.2521C66.275 22.3658 66.2608 22.4795 66.2182 22.5932C66.1897 22.7069 66.1328 22.8064 66.0618 22.8917C65.9907 22.977 65.8911 23.0481 65.7916 23.0907C65.6921 23.1333 65.5784 23.1617 65.4362 23.1617C65.3082 23.1617 65.1803 23.1333 65.0807 23.0907C64.967 23.0481 64.8817 22.977 64.8106 22.8917C64.7487 22.8174 64.7083 22.7215 64.6707 22.6323L64.6628 22.6134C64.6599 22.6066 64.6571 22.5999 64.6542 22.5932C64.6115 22.4937 64.5973 22.3658 64.5973 22.2521C64.5973 22.1384 64.6115 22.0247 64.6542 21.911C64.6826 21.8115 64.7395 21.712 64.8106 21.6268C64.8817 21.5415 64.9812 21.4704 65.0807 21.4278C65.1803 21.3851 65.294 21.3567 65.4362 21.3567C65.5641 21.3567 65.6921 21.3851 65.7916 21.4278C65.9054 21.4704 65.9907 21.5415 66.0618 21.6268C66.1328 21.712 66.1755 21.7973 66.2182 21.911Z" fill="#A1A6BA"/>
<path d="M68.2939 21.0583C68.4361 20.9588 68.6067 20.9162 68.7915 20.9162C68.9621 20.9162 69.1185 20.9588 69.2465 21.0299C69.3887 21.1009 69.4882 21.2431 69.5735 21.4136C69.6588 21.2573 69.7725 21.1294 69.9289 21.0441C70.0853 20.9588 70.2417 20.9162 70.4265 20.9162C70.5829 20.9162 70.7251 20.9446 70.8531 21.0014C70.9668 21.0583 71.0663 21.1294 71.1516 21.2288C71.2227 21.3283 71.2938 21.4278 71.3223 21.5557C71.3649 21.6837 71.3791 21.8116 71.3791 21.9537V23.5171H70.8815V22.1243C70.8815 22.0248 70.8673 21.9253 70.8531 21.8258C70.8389 21.7405 70.8104 21.6552 70.7678 21.5842C70.7251 21.5131 70.6682 21.4563 70.5972 21.4136C70.5261 21.371 70.4408 21.3568 70.327 21.3568C70.2133 21.3568 70.1138 21.3852 70.0285 21.4278C69.9431 21.4705 69.8863 21.5415 69.8294 21.6126C69.7725 21.6837 69.7441 21.7689 69.7157 21.8684C69.6872 21.9679 69.6872 22.0674 69.6872 22.1669V23.5313H69.1896V22.0248C69.1896 21.9253 69.1754 21.84 69.1612 21.7547C69.147 21.6695 69.1185 21.5984 69.0759 21.5415C69.0332 21.4847 68.9763 21.442 68.9053 21.3994C68.8342 21.371 68.7489 21.3425 68.6493 21.3425C68.4645 21.3425 68.3081 21.4136 68.1944 21.57C68.0664 21.7263 68.0095 21.9253 68.0095 22.1669V23.5029H67.4977V21.2715C67.4977 21.2198 67.4939 21.1682 67.4902 21.1185C67.4868 21.0725 67.4835 21.0282 67.4835 20.9872H67.9527C67.9527 21.0141 67.9558 21.0473 67.9592 21.0823L67.9592 21.0824C67.9629 21.1215 67.9669 21.163 67.9669 21.2004V21.3994H67.9811C68.0522 21.2715 68.1517 21.1578 68.2939 21.0583Z" fill="#A1A6BA"/>
<path fill-rule="evenodd" clip-rule="evenodd" d="M74.5781 22.2379C74.5781 22.0247 74.5496 21.8542 74.507 21.6836C74.4501 21.5273 74.3648 21.3851 74.2653 21.2714C74.1658 21.1577 74.0378 21.0724 73.8814 21.0156C73.7392 20.9587 73.5686 20.9303 73.3838 20.9303C73.199 20.9303 73.0284 20.9587 72.872 21.0298C72.7156 21.0867 72.5734 21.1862 72.4596 21.2998C72.3459 21.4136 72.2606 21.5557 72.1895 21.7262C72.1184 21.8968 72.09 22.0674 72.09 22.2663C72.09 22.4653 72.1184 22.6501 72.1895 22.8064C72.2464 22.9628 72.3459 23.1049 72.4596 23.2186C72.5876 23.3323 72.7298 23.4318 72.8862 23.4887C73.0426 23.5597 73.2274 23.5881 73.4122 23.5881C73.6397 23.5881 73.8388 23.5455 74.0236 23.4602C74.1942 23.3749 74.3648 23.247 74.4928 23.0623L74.1373 22.778C74.0662 22.8775 73.9667 22.977 73.8388 23.0481C73.7108 23.1191 73.5686 23.1617 73.398 23.1617C73.2843 23.1617 73.1848 23.1475 73.0852 23.1049C72.9857 23.0765 72.9004 23.0196 72.8293 22.9486C72.744 22.8775 72.6871 22.8064 72.6445 22.7069C72.6018 22.6075 72.5734 22.508 72.5734 22.4085H74.5781V22.2379ZM74.0094 21.7404C74.052 21.8257 74.0662 21.9252 74.0662 22.0247H72.5734C72.5734 21.9252 72.6018 21.8257 72.6445 21.7404C72.6871 21.6552 72.744 21.5841 72.8151 21.513C72.8862 21.442 72.9573 21.3994 73.0568 21.3567C73.1421 21.3141 73.2558 21.2998 73.3554 21.2998C73.4833 21.2998 73.5829 21.3141 73.6682 21.3567C73.7535 21.3994 73.8245 21.4562 73.8814 21.513C73.9383 21.5841 73.9667 21.6552 74.0094 21.7404Z" fill="#A1A6BA"/>
<path d="M76.4975 21.3993H75.8293V22.7069C75.8293 22.8633 75.8577 22.9627 75.9146 23.0338C75.9715 23.1049 76.0568 23.1333 76.1847 23.1333C76.2274 23.1333 76.2842 23.1333 76.3269 23.1191C76.3838 23.1049 76.4264 23.0907 76.4691 23.0765L76.4833 23.4886C76.4264 23.5171 76.3553 23.5313 76.2842 23.5455C76.2132 23.5597 76.1421 23.5597 76.0568 23.5597C75.8151 23.5597 75.6302 23.4886 75.5165 23.3607C75.3885 23.2328 75.3317 23.0338 75.3317 22.7638V21.3993H74.8483V20.9871H75.3317V20.2623H75.8293V20.9871H76.4975V21.3993Z" fill="#A1A6BA"/>
<path d="M77.5069 20.305C77.578 20.2482 77.6064 20.1771 77.6064 20.0776C77.6064 19.9923 77.5638 19.9213 77.5069 19.836C77.4358 19.7649 77.3505 19.7365 77.2652 19.7365C77.1799 19.7365 77.0946 19.7791 77.0377 19.836C76.9667 19.8929 76.9382 19.9781 76.9382 20.0634C76.9382 20.1487 76.9809 20.2198 77.0377 20.2908C77.0946 20.3619 77.1799 20.3903 77.2652 20.3903C77.3648 20.3903 77.4358 20.3619 77.5069 20.305Z" fill="#A1A6BA"/>
<path d="M77.0235 23.5172H77.5211V21.0015H77.0235V23.5172Z" fill="#A1A6BA"/>
<path fill-rule="evenodd" clip-rule="evenodd" d="M80.4073 23.1192C80.3078 23.2755 80.1799 23.3892 80.0092 23.4745C79.8386 23.5598 79.668 23.5882 79.4974 23.5882C79.2984 23.5882 79.1278 23.5598 78.9714 23.4887C78.815 23.4176 78.687 23.3182 78.5733 23.2044C78.4595 23.0907 78.3742 22.9486 78.3173 22.7781C78.2605 22.6217 78.232 22.4369 78.232 22.2522C78.232 22.0674 78.2605 21.8969 78.3173 21.7405C78.3742 21.5842 78.4595 21.442 78.5733 21.3141C78.687 21.2004 78.815 21.1009 78.9714 21.0299C79.1278 20.9588 79.2984 20.9304 79.4832 20.9304C79.6822 20.9304 79.8671 20.973 80.0235 21.0583C80.1798 21.1436 80.2936 21.2573 80.3789 21.371H80.3931V19.4949H80.8907V23.5171H80.4073V23.1192ZM78.7439 22.2522C78.7439 22.3659 78.7581 22.4796 78.8008 22.5933C78.8292 22.707 78.886 22.8065 78.9571 22.8918C79.0282 22.977 79.1135 23.0481 79.2131 23.0907C79.3126 23.1476 79.4405 23.1618 79.5685 23.1618C79.6965 23.1618 79.8102 23.1334 79.9239 23.0907C80.0235 23.0481 80.123 22.977 80.1941 22.8918C80.2652 22.8065 80.322 22.707 80.3647 22.6075C80.4073 22.4938 80.4216 22.3801 80.4216 22.2664C80.4216 22.1527 80.4073 22.0248 80.3647 21.9253C80.322 21.8116 80.2652 21.7121 80.1941 21.6268C80.123 21.5415 80.0235 21.4705 79.9239 21.4278C79.8244 21.3852 79.6965 21.3568 79.5685 21.3568C79.4263 21.3568 79.3126 21.3852 79.2131 21.4278C79.1135 21.4705 79.0282 21.5415 78.9571 21.6268C78.886 21.7121 78.8292 21.8116 78.8008 21.9253C78.7581 22.0248 78.7439 22.1385 78.7439 22.2522Z" fill="#A1A6BA"/>
<path fill-rule="evenodd" clip-rule="evenodd" d="M84.2319 22.7922C84.303 22.6217 84.3314 22.4511 84.3314 22.2521C84.3314 22.0531 84.2887 21.8684 84.2319 21.712C84.1608 21.5557 84.0755 21.4136 83.9475 21.2998C83.8338 21.1862 83.6916 21.1009 83.521 21.0298C83.3504 20.9587 83.1656 20.9303 82.9807 20.9303C82.7817 20.9303 82.6111 20.9587 82.4404 21.0298C82.284 21.0867 82.1277 21.1862 82.0139 21.2998C81.9002 21.4136 81.8007 21.5557 81.7296 21.712C81.6585 21.8826 81.63 22.0531 81.63 22.2521C81.63 22.4511 81.6585 22.6359 81.7296 22.7922C81.8007 22.9628 81.9002 23.1049 82.0139 23.2186C82.1277 23.3323 82.2698 23.4176 82.4404 23.4887C82.6111 23.5597 82.7959 23.5881 82.9807 23.5881C83.1798 23.5881 83.3504 23.5597 83.521 23.4887C83.6774 23.4318 83.8196 23.3323 83.9475 23.2186C84.0613 23.0907 84.1608 22.9486 84.2319 22.7922ZM83.7485 21.911C83.7911 22.0105 83.8053 22.1384 83.8053 22.2521C83.8053 22.3658 83.7911 22.4795 83.7485 22.5932C83.72 22.7069 83.6632 22.8064 83.5921 22.8917C83.521 22.977 83.4215 23.0481 83.3219 23.0907C83.2224 23.1333 83.1087 23.1617 82.9665 23.1617C82.8385 23.1617 82.7106 23.1333 82.6111 23.0907C82.4973 23.0481 82.412 22.977 82.3409 22.8917C82.2698 22.8064 82.2272 22.7069 82.1845 22.5932C82.1419 22.4937 82.1277 22.3658 82.1277 22.2521C82.1277 22.1384 82.1419 22.0247 82.1845 21.911C82.213 21.8115 82.2698 21.712 82.3409 21.6268C82.412 21.5415 82.5115 21.4704 82.6111 21.4278C82.7106 21.3851 82.8243 21.3567 82.9665 21.3567C83.0945 21.3567 83.2224 21.3851 83.3219 21.4278C83.4357 21.4704 83.521 21.5415 83.5921 21.6268C83.6632 21.712 83.7058 21.7973 83.7485 21.911Z" fill="#A1A6BA"/>
<path d="M86.3788 21.6268C86.3219 21.5415 86.2366 21.4562 86.1371 21.3994C86.0375 21.3425 85.9238 21.3141 85.7959 21.3141C85.739 21.3141 85.6821 21.3141 85.6252 21.3283C85.5684 21.3425 85.5115 21.3567 85.4688 21.3852C85.4262 21.4136 85.3835 21.442 85.3693 21.4846C85.3409 21.5273 85.3267 21.5699 85.3267 21.641C85.3267 21.7405 85.3693 21.8258 85.4688 21.8826C85.5684 21.9395 85.7106 21.9821 85.8954 22.0247C86.0091 22.0532 86.1229 22.0816 86.2366 22.1242C86.3361 22.1669 86.4356 22.2095 86.5067 22.2664C86.5778 22.3232 86.6489 22.3943 86.6916 22.4796C86.7342 22.5648 86.7484 22.6501 86.7484 22.7638C86.7484 22.9059 86.72 23.0339 86.6631 23.1476C86.6063 23.2471 86.5352 23.3323 86.4356 23.4034C86.3361 23.4745 86.2366 23.5171 86.1086 23.5455C85.9949 23.574 85.8669 23.5882 85.739 23.5882C85.5542 23.5882 85.3551 23.5455 85.1845 23.4745C84.9997 23.4034 84.8433 23.2897 84.7295 23.1334L85.085 22.8349C85.1561 22.9344 85.2414 23.0197 85.3693 23.0907C85.4831 23.1618 85.6252 23.1902 85.7674 23.1902C85.8243 23.1902 85.8954 23.1902 85.9522 23.176C86.0091 23.1618 86.066 23.1476 86.1086 23.1191C86.1513 23.0907 86.1939 23.0481 86.2224 23.0054C86.2508 22.9628 86.265 22.9059 86.265 22.8349C86.265 22.7212 86.2082 22.6359 86.0944 22.5791C85.9807 22.5222 85.8243 22.4653 85.5968 22.4227C85.5541 22.4085 85.5115 22.3978 85.4688 22.3872C85.4261 22.3765 85.3835 22.3659 85.3409 22.3516C85.2556 22.3232 85.1703 22.2806 85.0992 22.2237C85.0281 22.1669 84.9712 22.11 84.9286 22.0247C84.8859 21.9395 84.8575 21.84 84.8575 21.7263C84.8575 21.5984 84.8859 21.4704 84.9428 21.3852C84.9997 21.2857 85.0708 21.2146 85.1561 21.1435C85.2414 21.0867 85.3409 21.0298 85.4546 21.0014C85.5684 20.973 85.6821 20.9588 85.8101 20.9588C85.9949 20.9588 86.1655 21.0014 86.3361 21.0583C86.5067 21.1293 86.6347 21.2288 86.7342 21.3709L86.3788 21.6268Z" fill="#A1A6BA"/>
<path d="M48.901 26.6297C49.0148 26.6724 49.0859 26.7434 49.1427 26.8287L49.5124 26.4876C49.4129 26.3455 49.2707 26.246 49.1001 26.1749C48.9295 26.1181 48.7446 26.0754 48.574 26.0754C48.375 26.0754 48.2044 26.1181 48.0338 26.1749C47.8774 26.2318 47.721 26.3313 47.6072 26.445C47.4793 26.5729 47.394 26.715 47.3229 26.8714C47.2518 27.0277 47.2234 27.2125 47.2234 27.4115C47.2234 27.6247 47.2518 27.8094 47.3229 27.9658C47.394 28.1221 47.4935 28.2642 47.6072 28.3779C47.721 28.4916 47.8631 28.5911 48.0338 28.648C48.2044 28.7191 48.375 28.7475 48.574 28.7475C48.7731 28.7475 48.9579 28.7191 49.1143 28.648C49.2707 28.5911 49.4129 28.4916 49.5124 28.3637L49.1712 28.0653C49.1001 28.1505 49.0148 28.2216 48.9152 28.2642C48.8015 28.3069 48.6878 28.3353 48.5598 28.3353C48.4176 28.3353 48.3039 28.3069 48.2044 28.2642C48.1048 28.2216 48.0195 28.1505 47.9485 28.0653C47.8774 27.9942 47.8347 27.8947 47.7921 27.781C47.7494 27.6815 47.7352 27.5536 47.7352 27.4399C47.7352 27.3262 47.7494 27.2125 47.7921 27.0988C47.8205 26.9993 47.8774 26.8998 47.9485 26.8145C48.0195 26.7292 48.1048 26.6582 48.2044 26.6155C48.3181 26.5729 48.4319 26.5445 48.5598 26.5445C48.6878 26.5445 48.8015 26.5729 48.901 26.6297Z" fill="#A1A6BA"/>
<path fill-rule="evenodd" clip-rule="evenodd" d="M52.555 27.4399C52.555 27.6388 52.5265 27.8094 52.4554 27.9799C52.3843 28.1363 52.2848 28.2784 52.1711 28.4063C52.0431 28.52 51.9009 28.6195 51.7303 28.6764C51.5597 28.7475 51.3891 28.7759 51.1901 28.7759C51.0052 28.7759 50.8204 28.7475 50.6498 28.6764C50.4792 28.6053 50.337 28.52 50.2233 28.4063C50.1095 28.2926 50.01 28.1505 49.9389 27.9799C49.8678 27.8236 49.8394 27.6388 49.8394 27.4399C49.8394 27.2409 49.8678 27.0703 49.9389 26.8998C50.01 26.7434 50.1095 26.6013 50.2233 26.4876C50.337 26.3739 50.4934 26.2744 50.6498 26.2175C50.8204 26.1465 50.991 26.1181 51.1901 26.1181C51.3749 26.1181 51.5597 26.1465 51.7303 26.2175C51.9009 26.2886 52.0431 26.3739 52.1711 26.4876C52.299 26.6013 52.3843 26.7434 52.4554 26.8998C52.5265 27.0703 52.555 27.2409 52.555 27.4399ZM52.0431 27.4399C52.0431 27.3262 52.0289 27.1982 51.9862 27.0988C51.9436 26.985 51.9009 26.8998 51.8299 26.8145C51.7588 26.7292 51.6735 26.6582 51.5597 26.6155C51.4602 26.5729 51.3322 26.5444 51.2043 26.5444C51.0621 26.5444 50.9484 26.5729 50.8488 26.6155C50.7493 26.6582 50.6498 26.7292 50.5787 26.8145C50.5076 26.8998 50.4507 26.9992 50.4223 27.0988C50.3797 27.2124 50.3654 27.3262 50.3654 27.4399C50.3654 27.5536 50.3797 27.6815 50.4223 27.781C50.465 27.8947 50.5076 27.9942 50.5787 28.0794C50.6498 28.1647 50.7351 28.2358 50.8488 28.2784C50.9484 28.3211 51.0763 28.3495 51.2043 28.3495C51.3465 28.3495 51.4602 28.3211 51.5597 28.2784C51.6592 28.2358 51.7588 28.1647 51.8299 28.0794C51.9009 27.9942 51.9578 27.8947 51.9862 27.781C52.0147 27.6815 52.0431 27.5678 52.0431 27.4399Z" fill="#A1A6BA"/>
<path d="M53.7131 26.2842C53.7098 26.2491 53.7066 26.216 53.7066 26.1891V26.2175H53.2516C53.2516 26.2585 53.2549 26.3028 53.2583 26.3488C53.262 26.3985 53.2658 26.4501 53.2658 26.5018V28.7332H53.7635V27.3972C53.7635 27.1414 53.8203 26.9424 53.9483 26.7861C54.0762 26.6297 54.2326 26.5587 54.4317 26.5587C54.5454 26.5587 54.6449 26.5729 54.716 26.6155C54.7871 26.6582 54.844 26.715 54.8866 26.7861C54.9293 26.8571 54.9577 26.9424 54.972 27.0277C54.9862 27.1272 55.0004 27.2267 55.0004 27.3262V28.719H55.498V27.1556C55.498 27.0135 55.4838 26.8856 55.4411 26.7576C55.4127 26.6297 55.3416 26.516 55.2705 26.4307C55.1852 26.3312 55.0857 26.2602 54.972 26.2033C54.844 26.1465 54.7018 26.1181 54.5454 26.1181C54.4459 26.1181 54.3606 26.1323 54.2753 26.1607C54.19 26.1749 54.1189 26.2175 54.0478 26.2602C53.9767 26.3028 53.9198 26.3597 53.863 26.4165C53.8061 26.4734 53.7635 26.5302 53.735 26.6013H53.7208V26.4023C53.7208 26.3962 53.7207 26.3899 53.7205 26.3836C53.7203 26.378 53.7201 26.3724 53.7198 26.3668C53.7184 26.3395 53.7157 26.3113 53.7131 26.2842Z" fill="#A1A6BA"/>
<path d="M58.9103 26.6013H58.242V27.9089C58.242 28.0653 58.2705 28.1648 58.3273 28.2358C58.3842 28.3069 58.4695 28.3353 58.5975 28.3353C58.6401 28.3353 58.697 28.3353 58.7397 28.3211C58.7612 28.3157 58.7806 28.3104 58.7988 28.305C58.8288 28.2961 58.8553 28.2873 58.8818 28.2785L58.896 28.6906C58.8392 28.7191 58.7681 28.7333 58.697 28.7475C58.6259 28.7617 58.5548 28.7617 58.4695 28.7617C58.2278 28.7617 58.043 28.6906 57.9292 28.5627C57.8013 28.4348 57.7444 28.2358 57.7444 27.9658V26.6013H57.261V26.1892H57.7444V25.4643H58.242V26.1892H58.9103V26.6013Z" fill="#A1A6BA"/>
<path d="M61.1929 28.6105C61.1946 28.6285 61.1963 28.6461 61.1975 28.6625C61.1982 28.6725 61.1988 28.682 61.1991 28.6911L61.1992 28.6959L61.1993 28.7002L61.1993 28.7049V28.6906H61.6401C61.6401 28.6497 61.6368 28.6054 61.6334 28.5594C61.6297 28.5097 61.6258 28.4581 61.6258 28.4064V26.175H61.1282V27.511C61.1282 27.7526 61.0713 27.9516 60.9434 28.1079C60.8296 28.2643 60.659 28.3353 60.46 28.3353C60.3462 28.3353 60.2467 28.3211 60.1756 28.2785C60.1045 28.2358 60.0477 28.179 60.005 28.1079C59.9624 28.0369 59.9339 27.9658 59.9197 27.8663L59.9197 27.8661C59.9055 27.7667 59.8913 27.6673 59.8913 27.5678V26.175H59.3937V27.7384C59.3937 27.8805 59.4079 28.0084 59.4505 28.1364C59.4932 28.2643 59.5501 28.3638 59.6211 28.4632C59.7065 28.5627 59.806 28.6338 59.9197 28.6906C60.0477 28.7475 60.1899 28.7759 60.3462 28.7759C60.5311 28.7759 60.6875 28.7333 60.8439 28.6338C61.0003 28.5485 61.114 28.4206 61.1709 28.2927H61.1851V28.4917C61.1851 28.5291 61.189 28.5706 61.1928 28.6097L61.1928 28.6098L61.1929 28.6105Z" fill="#A1A6BA"/>
<path d="M64.313 26.1891C64.313 26.2013 64.3136 26.2147 64.3146 26.229C64.3159 26.2464 64.3176 26.265 64.3195 26.2842C64.3212 26.3022 64.323 26.3208 64.3244 26.3392C64.326 26.3607 64.3272 26.3821 64.3272 26.4023V26.6013H64.3414C64.3698 26.5302 64.4125 26.4734 64.4694 26.4165C64.5262 26.3597 64.5831 26.3028 64.6542 26.2602C64.7253 26.2175 64.7964 26.1749 64.8817 26.1607C64.967 26.1323 65.0523 26.1181 65.1518 26.1181C65.3082 26.1181 65.4504 26.1465 65.5783 26.2033C65.6921 26.2602 65.7916 26.3312 65.8769 26.4307C65.948 26.516 66.0191 26.6297 66.0475 26.7576C66.0902 26.8856 66.1044 27.0135 66.1044 27.1556V28.719H65.6068V27.3262C65.6068 27.2267 65.5925 27.1272 65.5783 27.0277C65.5641 26.9424 65.5357 26.8571 65.493 26.7861C65.4504 26.715 65.3935 26.6582 65.3224 26.6155C65.2513 26.5729 65.1518 26.5587 65.0381 26.5587C64.839 26.5587 64.6826 26.6297 64.5547 26.7861C64.4267 26.9424 64.3698 27.1414 64.3698 27.3972V28.7332H63.8722V26.5018C63.8722 26.4501 63.8684 26.3985 63.8647 26.3488C63.8613 26.3028 63.858 26.2585 63.858 26.2175H64.313V26.1891Z" fill="#A1A6BA"/>
<path fill-rule="evenodd" clip-rule="evenodd" d="M69.3034 27.4256C69.3034 27.2267 69.2749 27.0419 69.2181 26.8713C69.1612 26.715 69.0759 26.5729 68.9764 26.4592C68.8768 26.3455 68.7489 26.2602 68.5925 26.2033C68.4503 26.1465 68.2797 26.1181 68.0949 26.1181C67.91 26.1181 67.7394 26.1465 67.583 26.2175C67.4267 26.2744 67.2845 26.3739 67.1707 26.4876C67.057 26.6013 66.9717 26.7434 66.9006 26.914C66.8295 27.0845 66.8011 27.2551 66.8011 27.4541C66.8011 27.6531 66.8295 27.8378 66.9006 27.9942C66.9575 28.1505 67.057 28.2926 67.1707 28.4063C67.2987 28.52 67.4409 28.6195 67.5973 28.6764C67.7537 28.7475 67.9385 28.7759 68.1233 28.7759C68.3508 28.7759 68.5498 28.7332 68.7347 28.648C68.9195 28.5627 69.0901 28.4348 69.2181 28.25L68.8626 27.9657C68.7915 28.0652 68.692 28.1647 68.5641 28.2358C68.4361 28.3069 68.2939 28.3495 68.1233 28.3495C68.0096 28.3495 67.91 28.3353 67.8105 28.2926C67.711 28.2642 67.6257 28.2074 67.5546 28.1363C67.4693 28.0652 67.4124 27.9942 67.3698 27.8947C67.3271 27.7952 67.2987 27.6957 67.2987 27.5962H69.3034V27.4256ZM68.7347 26.9424C68.7773 27.0277 68.7915 27.1272 68.7915 27.2267H67.2987C67.2987 27.1272 67.3271 27.0277 67.3698 26.9424C67.4124 26.8571 67.4693 26.7718 67.5404 26.715C67.6115 26.6439 67.6826 26.6013 67.7821 26.5587C67.8674 26.516 67.9811 26.5018 68.0807 26.5018C68.2086 26.5018 68.3081 26.516 68.3934 26.5587C68.4788 26.6013 68.5498 26.6582 68.6067 26.715C68.6636 26.7861 68.7062 26.8571 68.7347 26.9424Z" fill="#A1A6BA"/>
<path fill-rule="evenodd" clip-rule="evenodd" d="M70.1991 29.1312C70.3128 29.2591 70.4408 29.3586 70.6114 29.4297C70.782 29.5007 70.9526 29.5434 71.1232 29.5434C71.2938 29.5434 71.436 29.515 71.5497 29.4723C71.6635 29.4297 71.7488 29.3586 71.8199 29.2733C71.891 29.1881 71.9336 29.0886 71.962 28.9749C71.9905 28.8612 72.0047 28.7332 72.0047 28.6053V28.2784H71.9905C71.9052 28.4205 71.7772 28.5343 71.6066 28.6053C71.4502 28.6764 71.2796 28.719 71.0948 28.719C70.9099 28.719 70.7251 28.6906 70.5687 28.6195C70.4123 28.5485 70.2701 28.4632 70.1706 28.3495C70.0569 28.2358 69.9716 28.0937 69.9147 27.9373C69.8578 27.781 69.8294 27.6104 69.8294 27.4256C69.8294 27.2409 69.8578 27.0703 69.9147 26.914C69.9716 26.7576 70.0569 26.6155 70.1706 26.5018C70.2844 26.3881 70.4123 26.2886 70.5687 26.2175C70.7251 26.1465 70.8957 26.1181 71.0948 26.1181C71.2796 26.1181 71.4502 26.1607 71.6066 26.2318C71.7772 26.3028 71.9052 26.4307 72.0047 26.5871H72.0189V26.1891H72.5023V28.5769C72.5023 28.7617 72.4739 28.9322 72.4312 29.1028C72.3886 29.2733 72.3033 29.4155 72.2038 29.5434C72.09 29.6713 71.9478 29.7708 71.7772 29.8561C71.6066 29.9271 71.3791 29.9698 71.1232 29.9698C70.9099 29.9698 70.6825 29.9271 70.455 29.8561C70.2275 29.7708 70.0427 29.6571 69.8863 29.515L70.1991 29.1312ZM70.3412 27.4256C70.3412 27.5393 70.3555 27.6531 70.3981 27.7668C70.4408 27.8805 70.4834 27.9657 70.5687 28.051C70.6398 28.1363 70.7251 28.1931 70.8389 28.25C70.9384 28.2926 71.0663 28.3211 71.1943 28.3211C71.3223 28.3211 71.436 28.2926 71.5497 28.25C71.6635 28.2074 71.7488 28.1363 71.8199 28.0652C71.891 27.9799 71.9478 27.8947 71.9905 27.781C72.0331 27.6673 72.0473 27.5536 72.0473 27.4256C72.0473 27.3119 72.0331 27.1982 71.9905 27.0845C71.9478 26.985 71.891 26.8856 71.8199 26.8003C71.7488 26.715 71.6493 26.6582 71.5497 26.6013C71.4502 26.5587 71.3223 26.5302 71.1943 26.5302C71.0663 26.5302 70.9384 26.5587 70.8389 26.6013C70.7393 26.6439 70.654 26.715 70.5687 26.7861C70.4976 26.8713 70.4408 26.9566 70.3981 27.0703C70.3697 27.184 70.3412 27.2977 70.3412 27.4256Z" fill="#A1A6BA"/>
<path fill-rule="evenodd" clip-rule="evenodd" d="M75.8151 27.9799C75.8862 27.8094 75.9146 27.6388 75.9146 27.4399C75.9146 27.2409 75.8862 27.0703 75.8151 26.8998C75.744 26.7434 75.6587 26.6013 75.5307 26.4876C75.417 26.3739 75.2748 26.2886 75.1042 26.2175C74.9336 26.1465 74.7487 26.1181 74.5639 26.1181C74.3649 26.1181 74.1943 26.1465 74.0237 26.2175C73.8673 26.2744 73.7109 26.3739 73.5971 26.4876C73.4834 26.6013 73.3839 26.7434 73.3128 26.8998C73.2417 27.0703 73.2132 27.2409 73.2132 27.4399C73.2132 27.6388 73.2417 27.8236 73.3128 27.9799C73.3839 28.1505 73.4834 28.2926 73.5971 28.4063C73.7109 28.52 73.853 28.6053 74.0237 28.6764C74.1943 28.7475 74.3791 28.7759 74.5639 28.7759C74.763 28.7759 74.9336 28.7475 75.1042 28.6764C75.2606 28.6195 75.4028 28.52 75.5307 28.4063C75.6445 28.2784 75.744 28.1363 75.8151 27.9799ZM75.3459 27.0988C75.3885 27.1982 75.4028 27.3262 75.4028 27.4399C75.4028 27.5678 75.3743 27.6815 75.3459 27.781C75.3175 27.8947 75.2606 27.9942 75.1895 28.0794C75.1184 28.1647 75.0189 28.2358 74.9194 28.2784C74.8198 28.3211 74.7061 28.3495 74.5639 28.3495C74.436 28.3495 74.308 28.3211 74.2085 28.2784C74.0947 28.2358 74.0094 28.1647 73.9383 28.0794C73.8672 27.9942 73.8246 27.8947 73.7819 27.781C73.7393 27.6815 73.7251 27.5536 73.7251 27.4399C73.7251 27.3262 73.7393 27.2124 73.7819 27.0988C73.8104 26.9992 73.8672 26.8998 73.9383 26.8145C74.0094 26.7292 74.1089 26.6582 74.2085 26.6155C74.308 26.5729 74.4217 26.5444 74.5639 26.5444C74.6919 26.5444 74.8198 26.5729 74.9194 26.6155C75.0331 26.6582 75.1184 26.7292 75.1895 26.8145C75.2606 26.8998 75.3032 26.985 75.3459 27.0988Z" fill="#A1A6BA"/>
<path d="M78.3742 26.8287C78.3173 26.7434 78.2463 26.6724 78.1325 26.6297C78.033 26.5729 77.9193 26.5445 77.7913 26.5445C77.6633 26.5445 77.5496 26.5729 77.4359 26.6155C77.3363 26.6582 77.251 26.7292 77.1799 26.8145C77.1088 26.8998 77.052 26.9993 77.0235 27.0988C76.9809 27.2125 76.9667 27.3262 76.9667 27.4399C76.9667 27.5536 76.9809 27.6815 77.0235 27.781C77.0662 27.8947 77.1088 27.9942 77.1799 28.0653C77.251 28.1505 77.3363 28.2216 77.4359 28.2642C77.5354 28.3069 77.6491 28.3353 77.7913 28.3353C77.9193 28.3353 78.033 28.3069 78.1467 28.2642C78.2463 28.2216 78.3316 28.1505 78.4027 28.0653L78.7439 28.3637C78.6443 28.4916 78.5022 28.5911 78.3458 28.648C78.1894 28.7191 78.0046 28.7475 77.8055 28.7475C77.6065 28.7475 77.4359 28.7191 77.2652 28.648C77.0946 28.5911 76.9525 28.4916 76.8387 28.3779C76.725 28.2642 76.6255 28.1221 76.5544 27.9658C76.4833 27.8094 76.4548 27.6247 76.4548 27.4115C76.4548 27.2125 76.4833 27.0277 76.5544 26.8714C76.6255 26.715 76.7108 26.5729 76.8387 26.445C76.9525 26.3313 77.1089 26.2318 77.2652 26.1749C77.4359 26.1181 77.6065 26.0754 77.8055 26.0754C77.9761 26.0754 78.1609 26.1181 78.3316 26.1749C78.5022 26.246 78.6443 26.3455 78.7439 26.4876L78.3742 26.8287Z" fill="#A1A6BA"/>
<path d="M79.7249 25.5069C79.796 25.4501 79.8244 25.379 79.8244 25.2795C79.8244 25.18 79.796 25.109 79.7249 25.0379C79.6538 24.9668 79.5685 24.9384 79.4832 24.9384C79.3979 24.9384 79.3126 24.981 79.2557 25.0379C79.1846 25.0947 79.1562 25.18 79.1562 25.2653C79.1562 25.3506 79.1988 25.4216 79.2557 25.4927C79.3126 25.5638 79.3979 25.5922 79.4832 25.5922C79.5827 25.5922 79.6538 25.5638 79.7249 25.5069Z" fill="#A1A6BA"/>
<path d="M79.2415 28.7048H79.7391V26.1892H79.2415V28.7048Z" fill="#A1A6BA"/>
<path fill-rule="evenodd" clip-rule="evenodd" d="M83.1656 27.4399C83.1656 27.6388 83.1372 27.8094 83.0661 27.9799C82.995 28.1363 82.8955 28.2784 82.7817 28.4063C82.6537 28.52 82.5116 28.6195 82.3552 28.6764C82.1846 28.7475 82.014 28.7759 81.8149 28.7759C81.6301 28.7759 81.4453 28.7475 81.2746 28.6764C81.104 28.6053 80.9619 28.52 80.8481 28.4063C80.7344 28.2926 80.6348 28.1505 80.5638 27.9799C80.4927 27.8236 80.4642 27.6388 80.4642 27.4399C80.4642 27.2409 80.4927 27.0703 80.5638 26.8998C80.6348 26.7434 80.7344 26.6013 80.8481 26.4876C80.9619 26.3739 81.1183 26.2744 81.2746 26.2175C81.4453 26.1465 81.6159 26.1181 81.8149 26.1181C81.9997 26.1181 82.1846 26.1465 82.3552 26.2175C82.5258 26.2886 82.668 26.3739 82.7817 26.4876C82.9097 26.6013 82.995 26.7434 83.0661 26.8998C83.1372 27.0703 83.1656 27.2409 83.1656 27.4399ZM82.6537 27.4399C82.6537 27.3262 82.6395 27.1982 82.5969 27.0988C82.5542 26.985 82.5116 26.8998 82.4405 26.8145C82.3694 26.7292 82.2841 26.6582 82.1704 26.6155C82.0708 26.5729 81.9429 26.5444 81.8149 26.5444C81.6727 26.5444 81.559 26.5729 81.4595 26.6155C81.3599 26.6582 81.2604 26.7292 81.1893 26.8145C81.1182 26.8998 81.0614 26.9992 81.0329 27.0988C80.9903 27.2124 80.9761 27.3262 80.9761 27.4399C80.9761 27.5536 80.9903 27.6815 81.0329 27.781C81.0756 27.8947 81.1182 27.9942 81.1893 28.0794C81.2604 28.1647 81.3457 28.2358 81.4595 28.2784C81.559 28.3211 81.687 28.3495 81.8149 28.3495C81.9571 28.3495 82.0708 28.3211 82.1704 28.2784C82.2699 28.2358 82.3694 28.1647 82.4405 28.0794C82.5116 27.9942 82.5685 27.8947 82.5969 27.781C82.6253 27.6815 82.6537 27.5678 82.6537 27.4399Z" fill="#A1A6BA"/>
<path d="M84.3172 28.6338C84.3883 28.5628 84.4167 28.4917 84.4167 28.3922C84.4167 28.2927 84.3883 28.2074 84.3172 28.1506C84.2461 28.0795 84.1608 28.0511 84.0613 28.0511C83.9617 28.0511 83.8764 28.0795 83.8054 28.1506C83.7343 28.2074 83.7058 28.2927 83.7058 28.3922C83.7058 28.4775 83.7343 28.5628 83.8054 28.6338C83.8764 28.7049 83.9617 28.7333 84.0613 28.7333C84.1608 28.7333 84.2461 28.7049 84.3172 28.6338Z" fill="#A1A6BA"/>
</svg>
