<svg width="129" height="25" viewBox="0 0 129 25" fill="none" xmlns="http://www.w3.org/2000/svg">
<path d="M11.7609 4.50435C11.8463 2.96694 11.9316 1.48079 12.017 -0.00537109H0.666992V1.61744C0.737017 1.62545 0.806807 1.63346 0.876473 1.64146L1.1117 1.66855C1.55692 1.71985 2.00211 1.77113 2.47616 1.82243V16.7523C1.92999 16.8377 1.41797 16.9231 0.871806 17.0256V18.6655H12.273C12.2388 17.8798 12.209 17.1025 12.1791 16.3253C12.1492 15.548 12.1194 14.7708 12.0852 13.985C11.6913 13.9682 11.3096 13.9555 10.9303 13.943C10.5372 13.9299 10.1465 13.917 9.74696 13.8996C9.71207 14.2089 9.67718 14.5124 9.64271 14.8122C9.55916 15.5389 9.4781 16.2438 9.40561 16.9573H5.92381V9.90233H7.4087C7.52817 10.4148 7.66471 10.9273 7.80125 11.3885H9.32027V6.81045H7.76712C7.64764 7.32292 7.52817 7.80122 7.4087 8.27952H5.90675V1.63452H9.37147C9.39707 2.10428 9.42268 2.5655 9.44828 3.02673C9.47388 3.48795 9.49948 3.94917 9.52508 4.41893C9.90168 4.43568 10.266 4.44833 10.628 4.46089C11.0043 4.47395 11.3782 4.48693 11.7609 4.50435Z" fill="#A1A6BA"/>
<path fill-rule="evenodd" clip-rule="evenodd" d="M52.4207 24.3895V24.3897C52.4092 24.5812 52.3972 24.7783 52.3819 24.9859H58.0313C58.0478 24.7713 58.0603 24.5647 58.0726 24.3603C58.0859 24.1416 58.099 23.9255 58.1166 23.7047C57.6387 23.6022 57.2291 23.5168 56.8195 23.4314V18.4263C56.9048 18.4434 56.956 18.4605 57.0072 18.4776C57.7923 18.8363 58.6116 18.9046 59.4649 18.8363C61.1205 18.6996 62.3152 17.8797 62.9809 16.3423C63.1857 15.8298 63.3393 15.3003 63.4417 14.7536C63.7318 13.2846 63.7148 11.7984 63.5953 10.3293C63.5441 9.61188 63.3905 8.87734 63.1857 8.19405C62.7078 6.65665 61.7691 5.58047 60.0623 5.40965C58.6969 5.27299 57.5022 5.6488 56.5805 6.7079C56.5718 6.71663 56.5631 6.72487 56.5543 6.73278C56.5505 6.73624 56.5467 6.73963 56.5429 6.74298L56.5371 6.74808C56.5259 6.75768 56.5148 6.76694 56.5037 6.7762C56.4781 6.79756 56.4525 6.81893 56.4269 6.84455C56.3293 6.50245 56.2403 6.17782 56.1476 5.83942L56.1468 5.83632C56.1102 5.70259 56.0729 5.56671 56.0343 5.42673C54.7372 5.61464 53.4913 5.78546 52.2453 5.95628V7.2887C52.6672 7.36148 53.0766 7.42187 53.4736 7.48041C53.5424 7.49057 53.6109 7.50066 53.679 7.51077V23.4314C53.2694 23.5339 52.8769 23.6193 52.4672 23.7047C52.4485 23.9295 52.4349 24.1543 52.4208 24.3875L52.4208 24.3885L52.4207 24.3895ZM59.7892 16.7693C58.7822 17.111 57.8094 17.0939 56.8024 16.6669V8.8261C56.8024 8.14281 57.2291 7.63034 57.9118 7.49369C57.9801 7.49369 58.0313 7.4766 58.0825 7.45952C59.2089 7.27161 59.9428 7.69867 60.2842 8.77486C60.4378 9.27023 60.5402 9.79979 60.5743 10.3123C60.6767 11.8497 60.7109 13.3871 60.489 14.9074C60.4402 15.2612 60.348 15.6149 60.2557 15.9687L60.2556 15.969L60.2337 16.0529L60.2175 16.1155L60.2128 16.1337L60.2007 16.1807L60.192 16.215C60.1768 16.2745 60.162 16.334 60.1476 16.3935C60.0964 16.5814 59.994 16.701 59.7892 16.7693Z" fill="#A1A6BA"/>
<path d="M94.6072 17.0427C95.0851 17.1452 95.5117 17.2306 95.9384 17.316C95.9299 17.5466 95.9171 17.7687 95.9043 17.9907C95.8915 18.2128 95.8787 18.4349 95.8702 18.6655H91.5179C91.5179 18.6142 91.5136 18.5673 91.5094 18.5203C91.5051 18.4733 91.5009 18.4263 91.5009 18.3751C91.5009 17.4128 91.5027 16.4505 91.5046 15.4882C91.5084 13.5636 91.5122 11.639 91.5009 9.71439C91.5009 9.3215 91.4155 8.9286 91.296 8.55279C91.1595 8.10865 90.784 7.85242 90.3232 7.74993C89.8794 7.64743 89.4357 7.6816 89.026 7.85242C88.6676 8.00616 88.3775 8.29655 88.3775 8.72361V16.9231C88.3775 16.9418 88.3826 16.9554 88.3901 16.9752C88.3962 16.9914 88.4039 17.0118 88.4116 17.0427C88.8042 17.1281 89.2138 17.2135 89.6917 17.2989C89.6736 17.534 89.6603 17.7691 89.6467 18.0093L89.6467 18.0101L89.6466 18.0113C89.6346 18.2242 89.6224 18.4411 89.6063 18.6655H84.0082V17.316C84.4349 17.2306 84.8274 17.1452 85.2541 17.0427V7.64743L85.1006 7.63039L85.0997 7.6303L85.0992 7.63024L85.0987 7.63018C84.6861 7.58449 84.26 7.5373 83.8204 7.47661V6.09295C85.0322 5.92213 86.244 5.75131 87.507 5.56341C87.5852 5.83166 87.6561 6.09992 87.7244 6.3586L87.725 6.36082L87.7259 6.36407C87.7615 6.49884 87.7964 6.63099 87.8313 6.75916C87.9199 6.69264 88.0103 6.62072 88.1031 6.54691L88.1033 6.54675C88.2964 6.39316 88.4998 6.23138 88.7188 6.09295C89.9306 5.32425 91.2448 5.18759 92.5932 5.66589C93.7196 6.07587 94.317 6.96414 94.5047 8.12573C94.5559 8.4503 94.573 8.77487 94.573 9.09942V16.5302C94.6072 16.7181 94.6072 16.8719 94.6072 17.0427Z" fill="#A1A6BA"/>
<path d="M18.6089 17.2135C18.3282 17.1566 18.0475 17.0996 17.7517 17.0427C17.7506 17.0331 17.7497 17.0236 17.7487 17.0142L17.7478 17.0054L17.7463 16.9889L17.7454 16.9785C17.7428 16.9496 17.7406 16.9212 17.7384 16.8927C17.7308 16.794 17.7233 16.6953 17.7005 16.5815V15.0441C17.7005 14.35 17.7024 13.6579 17.7043 12.9663L17.7043 12.9626V12.9588C17.7081 11.5764 17.7119 10.1965 17.7005 8.80904C17.7005 8.55281 17.7858 8.3649 17.9394 8.15991C18.3491 7.66453 18.9123 7.64744 19.4585 7.6987C20.2265 7.76702 20.6703 8.22824 20.7897 8.97987C20.8409 9.30442 20.8751 9.62899 20.8751 9.95354V18.6484H25.2444V17.948C25.2444 17.726 25.2615 17.5039 25.2785 17.2818C25.0481 17.2391 24.8305 17.1964 24.6128 17.1537C24.3952 17.111 24.1776 17.0683 23.9472 17.0256V9.04819C23.9472 8.70654 23.9302 8.34782 23.8619 8.02325C23.6059 6.74208 22.872 5.85381 21.5748 5.54633C20.09 5.1876 18.7246 5.478 17.5469 6.48585C17.4894 6.53519 17.4319 6.5885 17.3763 6.64003L17.376 6.64025C17.3162 6.69569 17.2586 6.74909 17.2055 6.79333C17.1839 6.71601 17.1628 6.63981 17.1421 6.56443C17.1189 6.48009 17.0962 6.39677 17.0736 6.31406L17.0734 6.313C17.0048 6.06164 16.9377 5.81576 16.8642 5.56342C15.5841 5.75132 14.3723 5.92214 13.1605 6.09296V7.47662C13.6384 7.52787 14.1163 7.57912 14.5771 7.63036C14.6795 8.10866 14.6454 16.7352 14.5601 17.0427L14.5597 17.0427C14.1673 17.1281 13.7748 17.2135 13.3653 17.2989C13.3564 17.5505 13.3427 17.7878 13.3292 18.0209C13.3171 18.2311 13.3052 18.4378 13.2971 18.6484H18.9464C18.9635 18.4178 18.9763 18.1956 18.9891 17.9735L18.9891 17.9733L18.9893 17.9707C19.002 17.7496 19.0148 17.5285 19.0318 17.2989C18.8899 17.2705 18.75 17.2421 18.61 17.2138L18.6089 17.2135Z" fill="#A1A6BA"/>
<path d="M114.593 7.30577C114.342 7.27883 114.096 7.25662 113.847 7.23416L113.846 7.2341C113.621 7.21385 113.394 7.19339 113.16 7.16911V5.95626C113.787 5.88732 114.415 5.81494 115.046 5.74219L115.047 5.74204L115.05 5.74172L115.053 5.74132L115.062 5.74025C115.833 5.65145 116.607 5.56213 117.392 5.47796C117.416 5.55171 117.44 5.62446 117.464 5.69654C117.612 6.14206 117.751 6.56194 117.751 7.03244C117.739 9.14915 117.743 11.2659 117.747 13.3775V13.3858C117.749 14.4411 117.751 15.4951 117.751 16.5473V17.0597C118.212 17.1451 118.621 17.2306 119.065 17.333C119.039 17.5637 119.018 17.7857 118.997 18.0078C118.975 18.2299 118.954 18.4519 118.928 18.6825H115.293C115.242 18.5204 115.186 18.354 115.129 18.1812L115.129 18.1807C115.071 18.0077 115.011 17.8284 114.952 17.6405C114.832 17.7259 114.747 17.7943 114.662 17.8626C113.177 19.2121 111.18 19.0754 109.917 18.4605C108.927 17.9822 108.398 17.1622 108.227 16.1031C108.159 15.7615 108.142 15.4027 108.142 15.044V7.33993C107.812 7.30579 107.497 7.27165 107.183 7.23752C107.025 7.22041 106.868 7.2033 106.708 7.18619V5.97335C107.724 5.86036 108.74 5.73815 109.776 5.61348C110.15 5.56852 110.527 5.52324 110.907 5.47796C110.943 5.62501 110.988 5.76714 111.033 5.90795L111.033 5.90836L111.034 5.91098C111.133 6.22722 111.231 6.53668 111.231 6.87871V14.3949C111.231 14.7365 111.248 15.0782 111.299 15.4198C111.419 16.3423 112.016 16.8889 112.938 16.906C113.262 16.906 113.586 16.8547 113.911 16.7693C114.252 16.6839 114.696 16.086 114.696 15.7444V7.4595C114.644 7.40825 114.627 7.37409 114.593 7.30577Z" fill="#A1A6BA"/>
<path fill-rule="evenodd" clip-rule="evenodd" d="M46.0839 15.7957C45.5206 14.9586 45.35 14.0191 45.35 12.96C47.5176 12.9258 49.6169 12.9088 51.7674 12.8917C51.7994 12.7903 51.8397 12.6889 51.8801 12.5874C51.9688 12.3643 52.0575 12.1411 52.0575 11.918C52.0575 10.9443 51.9551 9.97062 51.682 9.01402C51.409 8.0745 51.0164 7.22039 50.3166 6.5371C49.1219 5.39258 47.6882 5.20467 46.1521 5.52924C44.5307 5.87088 43.4725 6.87874 42.7898 8.34781C42.3631 9.25317 42.1583 10.1927 42.073 11.1835C41.9364 12.7892 42.0901 14.3608 42.7898 15.8469C43.4213 17.1964 44.3771 18.2043 45.8449 18.6313C47.6029 19.1438 49.2585 18.8534 50.8287 17.9993C50.9929 17.9226 51.136 17.8178 51.2806 17.7119C51.3614 17.6527 51.4427 17.5932 51.5284 17.5381C51.3407 17.111 51.17 16.7181 50.9993 16.3252L50.9989 16.3253L50.9974 16.3258C50.8449 16.3768 50.7429 16.4108 50.6409 16.4619C49.8558 16.7864 49.0536 16.9573 48.2003 16.9402C47.2957 16.9231 46.5959 16.5302 46.0839 15.7957ZM49.2055 10.8128C49.2161 10.9564 49.2273 11.1068 49.2414 11.2689C47.9101 11.3372 46.63 11.3884 45.35 11.4397C45.3467 11.4198 45.3427 11.4012 45.3385 11.3834C45.3358 11.3724 45.3331 11.3617 45.3303 11.3513C45.3283 11.3436 45.3263 11.3361 45.3243 11.3287C45.3109 11.2792 45.2988 11.2343 45.2988 11.1835C45.35 10.056 45.5548 8.96277 45.9815 7.90368C46.118 7.59619 46.3228 7.40829 46.6471 7.3058C47.4664 7.04956 48.0978 7.27163 48.5245 8.02324C48.9171 8.70653 49.0707 9.45816 49.156 10.2269C49.1761 10.4175 49.1903 10.6081 49.2055 10.8126V10.8128Z" fill="#A1A6BA"/>
<path fill-rule="evenodd" clip-rule="evenodd" d="M102.963 12.9166L102.96 12.9166C101.875 12.9296 100.797 12.9426 99.7103 12.96C99.6591 13.4212 99.7274 13.8483 99.8127 14.2754C99.9322 14.9245 100.171 15.5224 100.615 16.0348C101.11 16.6156 101.724 16.906 102.475 16.9231C103.295 16.9573 104.08 16.8035 104.848 16.496C105.001 16.4277 105.155 16.3765 105.36 16.3081L105.361 16.3102L105.361 16.3111C105.531 16.703 105.702 17.095 105.889 17.5381C105.876 17.5478 105.863 17.5569 105.85 17.5657C105.839 17.5731 105.828 17.5802 105.817 17.5873C105.807 17.5937 105.796 17.6001 105.786 17.6064C105.768 17.6176 105.75 17.6289 105.733 17.6407C105.716 17.6514 105.7 17.6626 105.684 17.6747C104.319 18.6313 102.782 19.0071 101.161 18.8192C99.1471 18.5972 97.7987 17.4185 97.0648 15.5736C96.1261 13.1992 96.1603 10.7906 97.1331 8.41614C97.7646 6.89582 98.8569 5.85381 100.512 5.49507C101.81 5.22176 103.056 5.30717 104.182 6.07587C104.984 6.62251 105.479 7.42536 105.821 8.31364C106.264 9.45816 106.435 10.6539 106.401 11.8667C106.389 12.1106 106.307 12.3458 106.224 12.5847L106.224 12.5855C106.21 12.6255 106.196 12.6655 106.182 12.7056C106.174 12.7283 106.167 12.7511 106.159 12.7739C106.154 12.79 106.149 12.8062 106.144 12.8223C106.138 12.8397 106.133 12.8571 106.128 12.8746C105.057 12.8913 104.007 12.904 102.963 12.9166ZM103.568 11.2689C103.533 10.3806 103.431 9.54357 103.175 8.7407C103.038 8.33073 102.851 7.972 102.578 7.63035C102.066 6.98123 100.512 7.10081 100.274 8.00616C100.218 8.21749 100.157 8.42882 100.096 8.64102C99.9483 9.14925 99.7996 9.66247 99.7274 10.1927C99.7188 10.2618 99.7092 10.3304 99.6996 10.399C99.6523 10.7371 99.6052 11.0733 99.6762 11.4568C100.36 11.4208 101.034 11.3895 101.713 11.358C102.323 11.3297 102.938 11.3012 103.568 11.2689Z" fill="#A1A6BA"/>
<path fill-rule="evenodd" clip-rule="evenodd" d="M80.1091 12.9169C81.1628 12.9043 82.2208 12.8915 83.2913 12.8747C83.3223 12.7764 83.3611 12.6765 83.4002 12.576C83.4902 12.3448 83.5814 12.1101 83.5814 11.8839C83.5814 10.5857 83.4107 9.32157 82.8987 8.12582C82.5061 7.20337 81.9429 6.41759 81.0383 5.9222C79.6729 5.17059 78.2393 5.23891 76.8397 5.78555C75.645 6.26385 74.8599 7.18629 74.3308 8.3308C73.8699 9.30449 73.6651 10.3465 73.5969 11.4227C73.4774 13.0113 73.6822 14.5658 74.4161 16.0178C75.1329 17.4356 76.2423 18.4264 77.8296 18.7339C79.5193 19.0755 81.1407 18.751 82.6086 17.8285C82.6853 17.7773 82.7579 17.7218 82.8304 17.6663L82.8306 17.6661C82.9031 17.6106 82.9756 17.5552 83.0523 17.504C82.9398 17.2481 82.8335 17.0045 82.7295 16.7658C82.66 16.6061 82.5916 16.4486 82.5232 16.2911C82.4204 16.3379 82.3278 16.3745 82.2398 16.4092L82.2395 16.4093C82.167 16.4379 82.0976 16.4653 82.0283 16.4961C81.2431 16.8207 80.441 16.9573 79.6047 16.9232C78.8708 16.9061 78.2563 16.5986 77.7955 16.0349C77.0616 15.1637 76.8909 14.1217 76.8738 12.9601C77.9537 12.9428 79.0291 12.9299 80.1091 12.9169ZM80.7222 10.9184C80.7303 11.0319 80.7386 11.1484 80.7482 11.269C80.0471 11.3049 79.3602 11.3362 78.6675 11.3677L78.6639 11.3678C78.0425 11.3961 77.4165 11.4246 76.7714 11.4569C76.7851 11.2992 76.7961 11.1552 76.8065 11.0184L76.8066 11.0173C76.8221 10.8137 76.8364 10.6258 76.8568 10.4319C76.9762 9.52656 77.164 8.63828 77.5395 7.80125C77.6419 7.57918 77.7955 7.44253 78.0174 7.35711C78.8878 7.01547 79.5876 7.23754 80.0484 8.05748C80.4068 8.68953 80.5604 9.38991 80.6458 10.0903C80.6825 10.36 80.7017 10.6297 80.7222 10.9184Z" fill="#A1A6BA"/>
<path d="M36.9016 5.56351C36.9528 5.76003 36.9997 5.95228 37.0467 6.14453C37.0936 6.33663 37.1405 6.52873 37.1917 6.7251C37.2685 6.68239 37.3453 6.63541 37.4221 6.58844L37.4223 6.58832C37.4991 6.54139 37.5758 6.49445 37.6525 6.45179C38.5571 5.92224 39.53 5.68309 40.5711 5.56351C41.0661 5.51227 41.4245 5.66601 41.7146 6.09307C41.6227 6.96055 41.5207 7.84827 41.4163 8.75621L41.4162 8.75765C41.3849 9.02923 41.3535 9.30263 41.3221 9.57784C40.9646 9.56079 40.6199 9.54801 40.2753 9.53523L40.2696 9.53504H40.2689C39.9245 9.52226 39.58 9.50947 39.2228 9.49243C39.1374 8.86038 39.0691 8.24542 39.0009 7.63047C38.4889 7.66462 38.0622 7.81837 37.6696 8.09168V17.0599C37.9653 17.1309 38.2529 17.1937 38.555 17.2597C38.6887 17.289 38.8253 17.3188 38.9667 17.3503C38.9584 17.5666 38.9461 17.7748 38.9336 17.9848C38.9205 18.2059 38.9072 18.429 38.8985 18.6656H33.3174V17.3673C33.7099 17.2649 34.1025 17.1623 34.478 17.0769V7.66462C34.3296 7.64813 34.1848 7.63164 34.0413 7.61514C33.9619 7.60601 33.8828 7.59689 33.8038 7.58776C33.644 7.5693 33.4841 7.55083 33.3211 7.53238L33.1296 7.51089V6.12722C34.1 5.96537 35.0809 5.82481 36.0893 5.68032L36.104 5.67823C36.3678 5.64042 36.6336 5.60233 36.9016 5.56351Z" fill="#A1A6BA"/>
<path d="M119.901 17.3502C119.867 17.7772 119.85 18.2043 119.833 18.6655C121.728 18.6655 123.571 18.6655 125.482 18.6143C125.499 18.3921 125.512 18.1741 125.525 17.9562C125.538 17.7385 125.551 17.5209 125.568 17.2989C125.396 17.2608 125.23 17.2227 125.067 17.1854C124.792 17.1225 124.528 17.0622 124.271 17.0085V7.97203C124.697 7.81828 125.124 7.66455 125.585 7.51081C125.616 7.76392 125.646 8.00766 125.674 8.24636L125.675 8.24813C125.723 8.65318 125.77 9.04376 125.824 9.4411C126.174 9.45818 126.519 9.47099 126.865 9.48379C127.21 9.49661 127.556 9.50942 127.906 9.52651C127.941 9.21644 127.977 8.90868 128.012 8.6035C128.112 7.73179 128.21 6.88124 128.299 6.05882C127.991 5.59759 127.599 5.44386 127.104 5.54635C126.936 5.58094 126.768 5.61124 126.601 5.64139L126.601 5.64149C126.19 5.71552 125.785 5.78866 125.397 5.92216C125.022 6.04737 124.662 6.22567 124.307 6.40147L124.306 6.40172C124.128 6.48967 123.952 6.57699 123.776 6.65669C123.734 6.49692 123.692 6.32474 123.648 6.14422C123.602 5.958 123.555 5.76292 123.503 5.56343C122.24 5.75134 120.994 5.92216 119.696 6.09298V7.47664C120.114 7.53428 120.495 7.57977 120.86 7.62335C120.928 7.63143 120.995 7.63944 121.062 7.64746V17.0598C120.923 17.0945 120.79 17.1273 120.66 17.1595C120.405 17.2222 120.161 17.2824 119.901 17.3502Z" fill="#A1A6BA"/>
<path d="M69.6803 7.84705L69.6784 7.84774C69.5001 7.91355 69.3283 7.97695 69.1593 8.04035V17.0598C69.3797 17.1107 69.5959 17.1574 69.812 17.204L69.8209 17.2059C70.037 17.2526 70.2532 17.2993 70.4735 17.3502C70.4647 17.4653 70.4558 17.5793 70.447 17.6928C70.4357 17.8377 70.4244 17.9818 70.4131 18.1262C70.3991 18.3047 70.3851 18.4837 70.3711 18.6655H64.79V17.3673L65.9677 17.0598V7.64746C65.8331 7.63249 65.6999 7.61752 65.5674 7.60256C65.473 7.5919 65.379 7.58125 65.285 7.57059L65.2706 7.56896C65.0493 7.54389 64.8278 7.5188 64.6023 7.49372V6.11006C65.8482 5.93924 67.0771 5.76842 68.3913 5.5805C68.4425 5.76835 68.4979 5.9562 68.5534 6.14405C68.6089 6.33201 68.6644 6.51998 68.7156 6.70794C68.8669 6.63223 69.0126 6.55376 69.1572 6.47585L69.1575 6.47573C69.3718 6.36032 69.5838 6.24618 69.8079 6.14423C70.4906 5.81966 71.2416 5.70008 71.9926 5.5805C72.4875 5.51218 72.8801 5.63176 73.2044 6.09297C73.1648 6.4608 73.1233 6.83425 73.0813 7.21332L73.0804 7.22057L73.0803 7.22135C72.9957 7.98405 72.9085 8.76953 72.8289 9.57775C72.485 9.56936 72.1452 9.55684 71.8035 9.54426C71.4499 9.53122 71.0941 9.51812 70.7296 9.50942C70.6742 9.07727 70.626 8.67387 70.5757 8.25259C70.5485 8.02445 70.5206 7.79098 70.4906 7.54496C70.2005 7.6551 69.9338 7.75349 69.6803 7.84705Z" fill="#A1A6BA"/>
<path d="M29.7502 5.7342V3.08645C29.311 3.10689 28.8901 3.12734 28.4693 3.14779C28.1869 3.16151 27.9046 3.17523 27.6167 3.18894C27.4764 3.68067 27.3301 4.1724 27.1849 4.66068C27.0829 5.00354 26.9814 5.34471 26.8828 5.68295C26.6077 5.69915 26.344 5.71151 26.0846 5.72367C25.7969 5.73716 25.5145 5.7504 25.2273 5.76836C25.2182 6.07745 25.2043 6.36719 25.1907 6.65045C25.1787 6.89945 25.167 7.14344 25.159 7.39118C25.3812 7.42824 25.5938 7.4621 25.8037 7.49552C26.0775 7.53911 26.3467 7.58198 26.6268 7.63032C26.6439 7.78407 26.661 7.93781 26.661 8.09154V15.7786C26.661 16.0348 26.661 16.291 26.6951 16.5473C26.8316 17.7772 27.6338 18.5971 28.8456 18.8021C29.6478 18.9388 30.4329 18.8875 31.218 18.7338C31.5764 18.6654 31.9349 18.5971 32.2762 18.3751C32.2479 18.1299 32.2249 17.8847 32.2013 17.6337C32.1821 17.4301 32.1626 17.2227 32.1397 17.0085C31.9764 17.0085 31.8191 17.0105 31.6657 17.0124C31.3702 17.0162 31.0893 17.0197 30.8084 17.0085C30.2793 16.9914 29.9038 16.6498 29.8355 16.1202C29.8185 15.9494 29.8185 15.7786 29.8185 15.6077C29.8014 13.0625 29.8014 10.5172 29.8014 7.97197C29.8014 7.86583 29.8148 7.77314 29.8298 7.67001L29.8355 7.63032C30.2125 7.58431 30.5796 7.54325 30.9502 7.50182C31.2674 7.46634 31.5871 7.43058 31.9178 7.39118C31.9306 7.25428 31.9434 7.11845 31.9563 6.98262C31.9946 6.57609 32.033 6.16954 32.0714 5.7342H29.7502Z" fill="#A1A6BA"/>
</svg>
