<svg width="121" height="20" viewBox="0 0 121 20" fill="none" xmlns="http://www.w3.org/2000/svg">
<path fill-rule="evenodd" clip-rule="evenodd" d="M14.6481 4.37675V0.542394L14.5796 0.473923H0.538554V0.610864C1.01801 0.679335 2.25088 1.63792 2.25088 3.14428V16.5645C2.25088 19.0979 0.949513 19.3718 0.401568 19.6457C0.264582 19.6457 0.264582 19.7826 0.401568 19.7826H7.45636C7.52486 19.7826 7.52486 19.6457 7.45636 19.6457C6.29198 19.0294 5.33308 18.6871 5.33308 16.496V10.1283H10.1961C11.3605 10.1283 12.5933 11.4292 13.0728 12.4563H13.2098V6.36239H13.0728C12.8673 7.52639 11.429 8.69039 10.1961 8.69039H5.40157V1.98028H10.9495C12.5933 1.98028 14.1002 3.28122 14.5112 4.44522C14.5112 4.51369 14.6481 4.51369 14.6481 4.37675ZM50.0591 17.3177L46.155 10.6076C46.7029 10.4706 47.3194 10.1967 48.0043 9.85439C51.429 7.80027 50.8125 3.48663 49.0317 2.04875C47.7303 1.02169 46.9769 0.542394 44.4427 0.473923H34.8536V0.542394C36.292 1.02169 36.8399 1.63792 36.9084 3.0758V16.5645C36.9084 19.0979 35.744 19.0294 34.9221 19.6457V19.8511H41.7714V19.7142C40.3331 19.0294 39.9221 18.6186 39.9221 16.5645V10.9499H43.1413L47.8673 19.8511H52.5249V19.5087C51.7029 19.3718 51.2235 19.2349 50.0591 17.3177ZM43.2783 9.51204H39.8536V1.84333H43.6892C48.0728 1.84333 48.4838 9.51204 43.2783 9.51204ZM99.3742 0.610864C100.744 1.29557 101.223 1.70639 101.223 3.76051V13.6887L90.6071 0.473923H86.2235V0.610864C87.5934 1.29557 88.0728 1.70639 88.0728 3.76051H88.0043V15.7429C88.0043 18.2763 87.0454 19.0294 86.2235 19.6457V19.8511H91.7029V19.7142C90.2646 19.0294 89.6481 18.4132 89.6481 16.2222V4.65063L101.977 19.8511H102.799V3.76051C102.799 1.2271 103.826 1.2271 104.648 0.679335V0.473923H99.5112V0.610864H99.3742ZM80.0591 0.610864C81.429 1.29557 81.9084 1.70639 81.9084 3.76051V14.5789C81.9084 16.633 80.607 18.5502 77.3194 18.5502C73.6892 18.5502 72.3879 16.2222 72.3879 14.5104V3.76051C72.3879 1.2271 73.3468 1.2271 74.1687 0.679335V0.473923H67.3879V0.610864C68.7577 1.29557 69.2372 1.70639 69.2372 3.76051V13.9626C69.2372 16.0167 70.3331 19.988 77.3194 19.988C82.4564 19.988 83.7577 16.5645 83.7577 13.8942L83.6892 3.69204C83.6892 1.15863 84.7166 1.15863 85.5386 0.610864V0.473923H80.1276V0.610864H80.0591ZM120.539 14.9897C119.854 17.1807 117.662 18.4132 114.511 18.4132C110.95 18.4132 110.402 17.3177 110.265 16.496V10.2652H114.648C117.182 10.2652 117.456 11.2923 118.073 12.1139H118.21V7.0471H118.073C117.388 8.34804 116.771 8.82733 114.922 8.8958H110.333V1.77486H115.47C116.84 1.77486 119.237 3.21275 119.511 4.44522H119.58V0.473923H105.265V0.610864C106.566 1.2271 107.045 1.63792 107.114 3.0758V16.9753C107.045 18.4817 106.566 19.0294 105.265 19.6457V19.8511H119.785L120.676 14.9897H120.539ZM65.6071 0.473923H53.2783C52.8673 0.405452 52.4564 0.336982 52.3879 0.0630995L51.4975 4.78757L51.566 4.85604C53.1413 2.25416 53.5523 1.77486 57.8673 1.77486V16.4276C57.8673 18.961 56.566 19.0294 55.8125 19.7142V19.8511H63.1413V19.7142C62.3194 19.0979 61.0865 19.0294 61.0865 16.4276V1.77486C65.4016 1.77486 65.744 2.25416 67.4564 4.85604V4.78757L66.4975 0.13157C66.3605 0.336982 66.018 0.405452 65.6071 0.473923ZM25.0591 -0.00537109C19.2372 -0.00537109 14.5796 4.44522 14.5796 9.99133C14.5796 15.5374 19.2372 19.988 25.0591 19.988C30.881 19.988 35.5386 15.5374 35.5386 9.99133C35.607 4.44522 30.881 -0.00537109 25.0591 -0.00537109ZM25.0591 18.7556C21.292 18.7556 18.2098 14.7843 18.2098 9.99133C18.2098 5.19839 21.292 1.36404 25.0591 1.36404C28.8947 1.36404 31.9084 5.26686 31.9084 9.99133C31.9084 14.7843 28.8947 18.7556 25.0591 18.7556Z" fill="#A1A6BA"/>
</svg>
