<svg width="103" height="18" viewBox="0 0 103 18" fill="none" xmlns="http://www.w3.org/2000/svg">
<path d="M15.2897 5.97347V17.6437H19.7568V-0.00537109H13.5759L9.97983 9.739L6.35562 -0.00537109H0.174805V17.6437H4.61375V5.97347L8.99651 17.6437H10.9631L15.2897 5.97347Z" fill="#A1A6BA"/>
<path fill-rule="evenodd" clip-rule="evenodd" d="M28.5785 16.3791V17.6726H32.596V9.68162C32.596 5.71489 29.7865 4.56511 26.7804 4.56511C24.87 4.56511 22.7067 5.14 21.1053 6.54848L22.5662 9.36544C23.5776 8.47435 24.8138 7.98571 26.0499 7.98571C27.6513 7.98571 28.5785 8.73305 28.5785 9.85409V11.1188C27.8199 10.1703 26.359 9.62412 24.7014 9.62412C22.791 9.62412 20.4029 10.6589 20.4029 13.7633C20.4029 16.609 22.791 17.96 24.7014 17.96C26.3028 17.96 27.7918 17.3277 28.5785 16.3791ZM28.5785 13.2172V14.367C28.1851 14.9706 27.2299 15.2868 26.359 15.2868C25.3195 15.2868 24.3643 14.8269 24.3643 13.8208C24.3643 12.8148 25.3195 12.3261 26.359 12.3261C27.2299 12.3261 28.157 12.6136 28.5785 13.2172Z" fill="#A1A6BA"/>
<path d="M32.8488 15.9765L34.5064 13.0734C35.4335 13.9069 37.4282 14.798 38.8891 14.798C40.0691 14.798 40.5748 14.4531 40.5748 13.9069C40.5748 13.3442 39.6562 13.1894 38.4731 12.9899C36.3327 12.6292 33.3264 12.1225 33.3264 8.79042C33.3264 6.54836 35.2368 4.59374 38.6644 4.59374C40.7996 4.59374 42.5414 5.28361 43.89 6.28967L42.3729 9.16412C41.6143 8.41675 40.2096 7.75563 38.6925 7.75563C37.7654 7.75563 37.1473 8.1293 37.1473 8.61796C37.1473 9.09913 37.9932 9.24484 39.107 9.4367C41.2537 9.80646 44.3957 10.3476 44.3957 13.792C44.3957 16.2352 42.3167 17.9599 38.7487 17.9599C36.473 17.9599 34.1692 17.1838 32.8488 15.9765Z" fill="#A1A6BA"/>
<path d="M53.358 10.1989V17.6437H57.3193V8.56047C57.3193 6.20342 56.0269 4.565 53.1894 4.565C51.0823 4.565 49.6214 5.5423 48.8628 6.43339V-0.00537109H44.8734V17.615H48.8628V9.36531C49.3404 8.79042 50.1271 8.1293 51.2789 8.1293C52.5432 8.1293 53.358 8.6467 53.358 10.1989Z" fill="#A1A6BA"/>
<path fill-rule="evenodd" clip-rule="evenodd" d="M66.0567 16.3791C65.27 17.3277 63.781 17.96 62.1796 17.96C60.2692 17.96 57.8811 16.609 57.8811 13.7633C57.8811 10.6589 60.2692 9.62412 62.1796 9.62412C63.8372 9.62412 65.2981 10.1703 66.0567 11.1188V9.85409C66.0567 8.73305 65.1295 7.98571 63.5281 7.98571C62.292 7.98571 61.0558 8.47435 60.0444 9.36544L58.5835 6.54848C60.1849 5.14 62.3482 4.56511 64.2586 4.56511C67.2647 4.56511 70.0742 5.71489 70.0742 9.68162V17.6726H66.0567V16.3791ZM66.0567 14.367V13.2172C65.6352 12.6136 64.7081 12.3261 63.8372 12.3261C62.7977 12.3261 61.8425 12.8148 61.8425 13.8208C61.8425 14.8269 62.7977 15.2868 63.8372 15.2868C64.7362 15.2868 65.6633 14.9706 66.0567 14.367Z" fill="#A1A6BA"/>
<path fill-rule="evenodd" clip-rule="evenodd" d="M71.4228 -0.00537109V17.6437H75.4122V16.1778C76.4517 17.4138 77.716 17.9886 79.1207 17.9886C82.2111 17.9886 84.6273 15.6029 84.6273 11.2625C84.6273 7.06576 82.2392 4.565 79.1207 4.565C77.7441 4.565 76.3955 5.11114 75.4122 6.3759V-0.00537109H71.4228ZM80.5255 11.2625C80.5255 13.1883 79.3455 14.3669 77.7722 14.3669C76.9293 14.3669 75.8898 13.9069 75.3841 13.2171V9.33658C75.8898 8.6467 76.9293 8.15806 77.7722 8.15806C79.3455 8.15806 80.5255 9.36531 80.5255 11.2625Z" fill="#A1A6BA"/>
<path d="M89.1505 -0.00537109H85.161V17.6437H89.1505V-0.00537109Z" fill="#A1A6BA"/>
<path fill-rule="evenodd" clip-rule="evenodd" d="M96.3427 4.5362C92.4376 4.5362 89.7124 7.52563 89.7124 11.2336C89.7124 15.4016 92.6623 17.9598 96.5394 17.9598C98.4498 17.9598 100.529 17.4137 101.765 16.2639L100.023 13.5907C99.2927 14.2806 97.8317 14.683 96.9608 14.683C95.1628 14.683 94.1233 13.7344 93.8423 12.5846H102.72V11.6648C102.72 7.32441 100.051 4.5362 96.3427 4.5362ZM93.7861 9.79643C93.9266 8.8766 94.6009 7.81307 96.3427 7.81307C98.1689 7.81307 98.8151 8.90536 98.9274 9.79643H93.7861Z" fill="#A1A6BA"/>
</svg>
