<svg width="117" height="25" viewBox="0 0 117 25" fill="none" xmlns="http://www.w3.org/2000/svg">
<path d="M0 -0.00524902H11.8517V11.8835H0V-0.00524902Z" fill="#A1A6BA"/>
<path d="M13.0618 -0.00524902H24.9136V11.8835H13.0618V-0.00524902Z" fill="#A1A6BA"/>
<path d="M110.609 4.07905C109.378 3.74344 107.968 3.80773 106.872 4.52177C106.175 4.97878 105.662 5.69993 105.434 6.48537C105.246 7.10583 105.254 7.747 105.262 8.38726L105.264 8.52191L105.265 8.62692C105.266 8.8276 105.266 9.02794 105.256 9.2273C104.658 9.2273 104.068 9.22011 103.477 9.23441C103.481 9.69421 103.48 10.1508 103.478 10.6063V10.6139C103.478 10.8421 103.477 11.0701 103.477 11.298C103.594 11.2994 103.711 11.3 103.827 11.3001C103.967 11.3003 104.106 11.2998 104.245 11.2993L104.483 11.2986L104.661 11.2985L104.785 11.2988C104.945 11.2995 105.104 11.3013 105.263 11.3051C105.259 13.228 105.26 15.1541 105.262 17.0811L105.263 18.054C105.263 18.6939 105.263 19.3337 105.263 19.9735H107.826V11.298H111.577C111.577 11.912 111.576 12.5261 111.576 13.1401C111.574 14.3683 111.572 15.5964 111.577 16.8246C111.591 17.6886 111.734 18.6026 112.303 19.2809C112.794 19.8807 113.57 20.1521 114.325 20.2092C115.115 20.2663 115.934 20.1735 116.667 19.8521V17.7457C116.104 18.1242 115.328 18.2741 114.716 17.9314C114.346 17.7243 114.211 17.2959 114.161 16.9032C114.109 16.4653 114.114 16.021 114.118 15.5768C114.119 15.4917 114.12 15.4067 114.121 15.3218C114.121 15.2704 114.121 15.219 114.121 15.1677C114.121 15.082 114.12 14.9965 114.118 14.911C114.118 14.5112 114.119 14.1113 114.12 13.7114L114.121 13.1412C114.121 12.9415 114.122 12.7418 114.122 12.5421L114.121 12.214L114.121 11.8574C114.12 11.6757 114.119 11.4939 114.118 11.3122C114.424 11.3148 114.729 11.3128 115.033 11.3108C115.579 11.3071 116.123 11.3036 116.667 11.3265V9.24152C116.438 9.24347 116.209 9.24382 115.979 9.24361L115.583 9.24292H115.583C115.1 9.24173 114.616 9.24055 114.133 9.2487C114.125 8.63243 114.126 8.01853 114.127 7.4056C114.128 6.94615 114.129 6.48725 114.126 6.02836C113.877 6.1045 113.627 6.1819 113.377 6.25951C112.784 6.44374 112.188 6.62873 111.591 6.79957C111.578 7.30825 111.579 7.81694 111.579 8.32562L111.579 8.69693C111.579 8.87844 111.579 9.06001 111.577 9.24152H107.826C107.83 9.12166 107.831 9.00151 107.831 8.88123C107.83 8.77398 107.829 8.66667 107.827 8.55935C107.822 8.14202 107.816 7.72482 107.876 7.31362C107.954 6.8138 108.239 6.30686 108.73 6.11406C109.342 5.85703 110.033 6.02836 110.616 6.28545C110.611 5.74951 110.613 5.21356 110.612 4.67762C110.612 4.47812 110.611 4.27855 110.609 4.07905Z" fill="#A1A6BA"/>
<path d="M51.9982 4.67169C52.5178 4.5931 53.073 4.77161 53.4147 5.17863C53.8133 5.62134 53.8916 6.3282 53.5927 6.8495C53.2652 7.43495 52.5249 7.70634 51.8843 7.56354C51.2223 7.44214 50.6671 6.82091 50.6956 6.12828C50.6742 5.40713 51.2864 4.75732 51.9982 4.67169Z" fill="#A1A6BA"/>
<path d="M36.082 4.99301H32.352C32.352 9.99126 32.352 14.9895 32.3592 19.9806H34.8007V13.2686C34.8033 12.6819 34.8021 12.0942 34.8009 11.5062C34.7989 10.4771 34.7968 9.4473 34.8149 8.42038C34.8321 8.44911 34.8493 8.47895 34.8664 8.5095C34.892 8.55496 34.9175 8.60189 34.9431 8.64889C35.3864 9.75327 35.8291 10.8583 36.2719 11.9636L36.2781 11.9793C37.3477 14.649 38.4179 17.3202 39.4987 19.9878C39.7804 19.9813 40.0606 19.9822 40.34 19.983C40.6749 19.9841 41.0086 19.9851 41.3423 19.9735C42.1486 17.9065 42.9656 15.8437 43.7827 13.7806L43.7939 13.7526C44.4662 12.0549 45.1387 10.3569 45.8054 8.656L45.8262 8.61472C45.837 8.59373 45.8479 8.57316 45.8589 8.5528C45.8847 8.50531 45.9114 8.45929 45.9406 8.4132C45.9477 8.58459 45.9549 8.74881 45.9549 8.91302C45.9513 10.7588 45.9513 12.6046 45.9513 14.4495C45.9513 16.2944 45.9513 18.1384 45.9477 19.9806C46.5905 19.9913 47.2333 19.9899 47.8761 19.9886H47.8872C48.102 19.9882 48.3168 19.9878 48.5316 19.9878V4.99301C48.1897 4.99301 47.8478 4.99182 47.5059 4.99063C46.6519 4.98771 45.798 4.98485 44.9441 5.00012C44.0319 7.26795 43.1117 9.53048 42.1917 11.7925L41.3062 13.9705C41.0213 14.6718 40.7366 15.3732 40.4525 16.0749C40.2707 15.6379 40.0989 15.1986 39.9268 14.7582C39.8091 14.4571 39.6912 14.1557 39.5699 13.8542L37.8244 9.41968C37.243 7.94468 36.6616 6.46975 36.082 4.99301Z" fill="#A1A6BA"/>
<path d="M59.0523 9.22723C60.2909 8.87021 61.6219 8.8845 62.8605 9.24152C63.1168 9.31293 63.3588 9.41292 63.5937 9.54854C63.5855 10.0181 63.5867 10.4877 63.5879 10.956C63.5887 11.3065 63.5896 11.6563 63.5866 12.0049C62.7609 11.3693 61.7145 10.9695 60.661 11.1051C59.8282 11.1837 59.0309 11.6121 58.5327 12.2905C57.892 13.1259 57.7425 14.2398 57.8564 15.268C57.9419 16.0677 58.2693 16.8746 58.8886 17.4029C59.5363 17.9814 60.4403 18.1813 61.2874 18.117C62.1202 18.0171 62.9103 17.6672 63.5866 17.1673C63.5908 17.6328 63.59 18.0956 63.5901 18.559C63.5903 18.8705 63.5908 19.1822 63.5937 19.4951C62.5473 20.1235 61.2874 20.2805 60.0915 20.2234C58.8672 20.1592 57.6429 19.695 56.7531 18.8239C55.7851 17.8885 55.2654 16.5604 55.2014 15.2251C55.1373 13.8399 55.422 12.3904 56.2121 11.2337C56.8741 10.2555 57.9134 9.55573 59.0523 9.22723Z" fill="#A1A6BA"/>
<path d="M90.5928 9.44144C89.4753 9.01302 88.2296 8.8631 87.048 9.0702C86.0443 9.2487 85.062 9.76994 84.4997 10.6411C84.0014 11.3836 83.9374 12.3476 84.1438 13.2044C84.2862 13.7828 84.6349 14.2969 85.1047 14.6611C85.6259 15.0602 86.231 15.3221 86.833 15.5828C86.9138 15.6178 86.9945 15.6527 87.0751 15.688C87.1565 15.7237 87.2378 15.7597 87.3185 15.7964L87.3882 15.83C87.7663 16.0121 88.1612 16.2023 88.436 16.5319C88.7492 16.9888 88.6496 17.7386 88.13 17.9956C87.5819 18.2598 86.9412 18.2527 86.3575 18.1599C85.5105 18.0171 84.7204 17.6529 84.0299 17.153C84.0258 17.3905 84.0241 17.6279 84.0235 17.8653C84.0233 17.9544 84.0233 18.0433 84.0233 18.1324C84.0234 18.2792 84.0237 18.4261 84.0241 18.5729C84.025 18.9279 84.0258 19.2829 84.0228 19.6379C84.8414 20.0021 85.7383 20.1806 86.628 20.2377C87.8808 20.2877 89.2475 20.0378 90.1942 19.1523C91.1908 18.2741 91.4257 16.7104 90.8633 15.5322C90.5644 14.9038 89.9878 14.4683 89.397 14.1327C89.0533 13.931 88.6859 13.7782 88.3191 13.6257L88.3181 13.6253C87.8801 13.4432 87.443 13.2615 87.048 12.9974C86.6209 12.726 86.507 12.1334 86.6778 11.6835C86.8985 11.2265 87.4253 11.0266 87.9022 11.0052C88.8489 10.9766 89.8098 11.2622 90.5928 11.8049V9.44144Z" fill="#A1A6BA"/>
<path d="M69.3167 9.40574C70.0213 8.97731 70.9254 8.94161 71.6941 9.20582C71.6894 9.77705 71.6909 10.3483 71.6925 10.9195C71.6933 11.2051 71.6941 11.4907 71.6941 11.7764C71.1887 11.4479 70.5552 11.305 69.9644 11.3693C69.2384 11.455 68.6618 12.012 68.3628 12.6546C68.0354 13.3329 67.9784 14.1041 67.9998 14.8467V19.9878H65.4728V9.24863C66.3116 9.23434 67.1575 9.24152 67.9964 9.24863H67.9998C67.995 9.65802 67.9966 10.0674 67.9982 10.4768C67.999 10.6815 67.9998 10.8862 67.9998 11.0908C68.2703 10.4197 68.676 9.76987 69.3167 9.40574Z" fill="#A1A6BA"/>
<path d="M51.6577 9.23915H51.6569C51.4947 9.23992 51.3327 9.24069 51.1708 9.24117L50.9305 9.24152V19.9878H53.4716C53.4752 18.1991 53.4752 16.4087 53.4752 14.6182C53.4752 12.8277 53.4752 11.0374 53.4788 9.24863C52.8736 9.23336 52.2649 9.23622 51.6577 9.23915Z" fill="#A1A6BA"/>
<path fill-rule="evenodd" clip-rule="evenodd" d="M80.0793 9.48425C78.9404 8.96302 77.6449 8.89162 76.4135 9.04872C75.1251 9.20582 73.8652 9.81986 73.0466 10.8624C72.2992 11.7835 71.9361 12.9688 71.865 14.147C71.7653 15.5322 71.9931 17.0031 72.8046 18.1598C73.495 19.1594 74.5841 19.845 75.7657 20.0949C76.7551 20.3019 77.7873 20.3019 78.7696 20.0949C79.9156 19.8593 80.9976 19.2166 81.7094 18.2741C82.4069 17.3886 82.7558 16.2676 82.834 15.1466C82.9123 13.997 82.7984 12.8117 82.3215 11.7549C81.8731 10.7624 81.0687 9.93415 80.0793 9.48425ZM79.3248 11.8121C78.7696 11.2551 77.951 11.0338 77.1822 11.0837C76.5701 11.1194 75.9508 11.3265 75.481 11.7549C74.8546 12.3262 74.5698 13.1687 74.4916 13.997C74.4061 14.9038 74.4702 15.8607 74.8831 16.6889C75.2034 17.3315 75.7942 17.8314 76.4917 18.0171C77.1751 18.1956 77.9225 18.1813 78.5845 17.9242C79.154 17.7029 79.6024 17.2316 79.8444 16.6818C80.2146 15.8607 80.2502 14.9395 80.2074 14.0542C80.1434 13.2473 79.9156 12.3976 79.3248 11.8121Z" fill="#A1A6BA"/>
<path fill-rule="evenodd" clip-rule="evenodd" d="M96.8497 9.04154C98.131 8.8845 99.4834 8.97013 100.651 9.56284C101.669 10.0698 102.459 10.998 102.85 12.062C103.156 12.8759 103.263 13.7614 103.249 14.6253C103.249 15.9249 102.9 17.253 102.089 18.2883C101.327 19.288 100.167 19.9306 98.9354 20.1377C97.7324 20.3305 96.4654 20.2805 95.3264 19.8307C94.1733 19.3737 93.2123 18.4454 92.7212 17.2958C92.2158 16.1248 92.1589 14.811 92.3155 13.5614C92.4792 12.3119 93.0486 11.0908 94.0096 10.2626C94.7997 9.56995 95.8176 9.17723 96.8497 9.04154ZM97.5402 11.0909C98.2662 11.0409 99.035 11.2051 99.5902 11.6978C100.103 12.1263 100.387 12.7618 100.516 13.4115C100.665 14.1684 100.658 14.9467 100.537 15.7107C100.437 16.2748 100.245 16.8389 99.8749 17.2887C99.5048 17.7386 98.9496 18.0099 98.3801 18.0956C97.768 18.1885 97.1202 18.1456 96.5437 17.8957C95.9244 17.6314 95.4474 17.0959 95.1912 16.4748C94.8851 15.7393 94.8282 14.9181 94.8851 14.1327C94.9421 13.3687 95.1556 12.5833 95.661 11.9906C96.1237 11.4336 96.8284 11.1266 97.5402 11.0909Z" fill="#A1A6BA"/>
<path d="M0 13.0973H11.8517V24.986H0V13.0973Z" fill="#A1A6BA"/>
<path d="M24.9136 13.0973H13.0618V24.986H24.9136V13.0973Z" fill="#A1A6BA"/>
</svg>
